<mxfile host="app.diagrams.net" modified="2023-09-21T04:44:10.800Z" agent="Mozilla/5.0 (Windows NT 10.0; Win64; x64) AppleWebKit/537.36 (KHTML, like Gecko) Chrome/116.0.0.0 Safari/537.36" etag="E5jhjmTbgJ2nqMBCQ5hx" version="21.7.5" type="github">
  <diagram name="Page-1" id="b98fa263-6416-c6ec-5b7d-78bf54ef71d0">
    <mxGraphModel dx="5486.5" dy="5204" grid="1" gridSize="10" guides="1" tooltips="1" connect="1" arrows="1" fold="1" page="1" pageScale="1.5" pageWidth="1169" pageHeight="826" background="none" math="0" shadow="0">
      <root>
        <mxCell id="0" style=";html=1;" />
        <mxCell id="1" style=";html=1;" parent="0" />
        <mxCell id="kgQNQLbI_HPiewj2uFAK-174" style="edgeStyle=orthogonalEdgeStyle;rounded=0;orthogonalLoop=1;jettySize=auto;html=1;exitX=0.5;exitY=0;exitDx=0;exitDy=0;entryX=0;entryY=0.5;entryDx=0;entryDy=0;" parent="1" source="303ed1de8c2c98b4-4" target="kgQNQLbI_HPiewj2uFAK-74" edge="1">
          <mxGeometry relative="1" as="geometry" />
        </mxCell>
        <mxCell id="303ed1de8c2c98b4-4" value="Thể thao tương tác" style="whiteSpace=wrap;html=1;rounded=1;shadow=1;strokeWidth=1;fontSize=16;align=center;fillColor=#f5f5f5;strokeColor=#666666;" parent="1" vertex="1">
          <mxGeometry x="956.5" y="30" width="223.5" height="120" as="geometry" />
        </mxCell>
        <mxCell id="303ed1de8c2c98b4-5" value="Thông số" style="whiteSpace=wrap;html=1;rounded=1;shadow=1;strokeWidth=1;fontSize=16;align=center;fillColor=#f5f5f5;strokeColor=#666666;" parent="1" vertex="1">
          <mxGeometry x="-3" y="415" width="275" height="40" as="geometry" />
        </mxCell>
        <mxCell id="303ed1de8c2c98b4-7" value="Đội hình" style="whiteSpace=wrap;html=1;rounded=1;shadow=1;strokeWidth=1;fontSize=16;align=center;fillColor=#f5f5f5;strokeColor=#666666;" parent="1" vertex="1">
          <mxGeometry x="-585" y="415" width="275" height="40" as="geometry" />
        </mxCell>
        <mxCell id="303ed1de8c2c98b4-8" value="Diễn biến" style="whiteSpace=wrap;html=1;rounded=1;shadow=1;strokeWidth=1;fontSize=16;align=center;fillColor=#f5f5f5;strokeColor=#666666;" parent="1" vertex="1">
          <mxGeometry x="274" y="1930" width="275" height="40" as="geometry" />
        </mxCell>
        <mxCell id="303ed1de8c2c98b4-9" value="Livescore" style="whiteSpace=wrap;html=1;rounded=1;shadow=1;strokeWidth=1;fontSize=16;align=center;fillColor=#f5f5f5;strokeColor=#666666;" parent="1" vertex="1">
          <mxGeometry x="574" y="1930" width="275" height="40" as="geometry" />
        </mxCell>
        <mxCell id="kgQNQLbI_HPiewj2uFAK-61" value="" style="edgeStyle=orthogonalEdgeStyle;rounded=0;orthogonalLoop=1;jettySize=auto;html=1;" parent="1" source="303ed1de8c2c98b4-10" target="kgQNQLbI_HPiewj2uFAK-60" edge="1">
          <mxGeometry relative="1" as="geometry" />
        </mxCell>
        <mxCell id="303ed1de8c2c98b4-10" value="Thông tin đội" style="whiteSpace=wrap;html=1;rounded=1;shadow=1;strokeWidth=1;fontSize=16;align=center;fillColor=#f5f5f5;strokeColor=#666666;" parent="1" vertex="1">
          <mxGeometry x="-3" y="485" width="125" height="80" as="geometry" />
        </mxCell>
        <mxCell id="303ed1de8c2c98b4-12" value="Player" style="whiteSpace=wrap;html=1;rounded=1;shadow=1;strokeWidth=1;fontSize=16;align=center;fillColor=#f5f5f5;strokeColor=#666666;" parent="1" vertex="1">
          <mxGeometry x="147" y="485" width="125" height="80" as="geometry" />
        </mxCell>
        <mxCell id="303ed1de8c2c98b4-15" value="Giao diện" style="whiteSpace=wrap;html=1;rounded=1;shadow=1;strokeWidth=1;fontSize=16;align=center;fillColor=#f5f5f5;strokeColor=#666666;" parent="1" vertex="1">
          <mxGeometry x="-585" y="485" width="125" height="80" as="geometry" />
        </mxCell>
        <mxCell id="303ed1de8c2c98b4-16" value="Thông tin cầu thủ" style="whiteSpace=wrap;html=1;rounded=1;shadow=1;strokeWidth=1;fontSize=16;align=center;fillColor=#f5f5f5;strokeColor=#666666;" parent="1" vertex="1">
          <mxGeometry x="-435" y="485" width="125" height="80" as="geometry" />
        </mxCell>
        <mxCell id="303ed1de8c2c98b4-17" value="Giao diện" style="whiteSpace=wrap;html=1;rounded=1;shadow=1;strokeWidth=1;fontSize=16;align=center;fillColor=#f5f5f5;strokeColor=#666666;" parent="1" vertex="1">
          <mxGeometry x="274" y="2000" width="125" height="80" as="geometry" />
        </mxCell>
        <mxCell id="303ed1de8c2c98b4-19" value="Giao diện" style="whiteSpace=wrap;html=1;rounded=1;shadow=1;strokeWidth=1;fontSize=16;align=center;fillColor=#f5f5f5;strokeColor=#666666;" parent="1" vertex="1">
          <mxGeometry x="574" y="2000" width="125" height="80" as="geometry" />
        </mxCell>
        <mxCell id="303ed1de8c2c98b4-20" value="Button Play" style="whiteSpace=wrap;html=1;rounded=1;shadow=1;strokeWidth=1;fontSize=16;align=center;fillColor=#f5f5f5;strokeColor=#666666;" parent="1" vertex="1">
          <mxGeometry x="724" y="2000" width="125" height="80" as="geometry" />
        </mxCell>
        <mxCell id="303ed1de8c2c98b4-21" value="Button List" style="whiteSpace=wrap;html=1;rounded=1;shadow=1;strokeWidth=1;fontSize=16;align=center;fillColor=#f5f5f5;strokeColor=#666666;" parent="1" vertex="1">
          <mxGeometry x="-3" y="595" width="125" height="80" as="geometry" />
        </mxCell>
        <mxCell id="303ed1de8c2c98b4-22" value="Thanh cuộn" style="whiteSpace=wrap;html=1;rounded=1;shadow=1;strokeWidth=1;fontSize=16;align=center;fillColor=#f5f5f5;strokeColor=#666666;" parent="1" vertex="1">
          <mxGeometry x="147" y="595" width="125" height="80" as="geometry" />
        </mxCell>
        <mxCell id="303ed1de8c2c98b4-31" value="Defind List" style="whiteSpace=wrap;html=1;rounded=1;shadow=1;strokeWidth=1;fontSize=16;align=center;fillColor=#f5f5f5;strokeColor=#666666;" parent="1" vertex="1">
          <mxGeometry x="-3" y="705" width="125" height="80" as="geometry" />
        </mxCell>
        <mxCell id="303ed1de8c2c98b4-85" style="edgeStyle=orthogonalEdgeStyle;html=1;startSize=6;endFill=0;endSize=6;strokeWidth=1;fontSize=16;rounded=0;entryX=1;entryY=0.5;endArrow=none;" parent="1" source="303ed1de8c2c98b4-5" target="303ed1de8c2c98b4-10" edge="1">
          <mxGeometry relative="1" as="geometry">
            <Array as="points">
              <mxPoint x="135" y="525" />
            </Array>
          </mxGeometry>
        </mxCell>
        <mxCell id="303ed1de8c2c98b4-86" style="edgeStyle=orthogonalEdgeStyle;html=1;startSize=6;endFill=0;endSize=6;strokeWidth=1;fontSize=16;rounded=0;entryX=1;entryY=0.5;endArrow=none;" parent="1" source="303ed1de8c2c98b4-5" target="303ed1de8c2c98b4-21" edge="1">
          <mxGeometry relative="1" as="geometry">
            <Array as="points">
              <mxPoint x="135" y="635" />
            </Array>
          </mxGeometry>
        </mxCell>
        <mxCell id="303ed1de8c2c98b4-87" style="edgeStyle=orthogonalEdgeStyle;html=1;startSize=6;endFill=0;endSize=6;strokeWidth=1;fontSize=16;rounded=0;entryX=1;entryY=0.5;endArrow=none;" parent="1" source="303ed1de8c2c98b4-5" target="303ed1de8c2c98b4-31" edge="1">
          <mxGeometry relative="1" as="geometry">
            <Array as="points">
              <mxPoint x="135" y="745" />
            </Array>
          </mxGeometry>
        </mxCell>
        <mxCell id="303ed1de8c2c98b4-89" style="edgeStyle=orthogonalEdgeStyle;html=1;startSize=6;endFill=0;endSize=6;strokeWidth=1;fontSize=16;rounded=0;entryX=0;entryY=0.5;endArrow=none;" parent="1" source="303ed1de8c2c98b4-5" target="303ed1de8c2c98b4-12" edge="1">
          <mxGeometry relative="1" as="geometry">
            <Array as="points">
              <mxPoint x="135" y="525" />
            </Array>
          </mxGeometry>
        </mxCell>
        <mxCell id="303ed1de8c2c98b4-90" style="edgeStyle=orthogonalEdgeStyle;html=1;startSize=6;endFill=0;endSize=6;strokeWidth=1;fontSize=16;rounded=0;entryX=0;entryY=0.5;endArrow=none;" parent="1" source="303ed1de8c2c98b4-5" target="303ed1de8c2c98b4-22" edge="1">
          <mxGeometry relative="1" as="geometry">
            <Array as="points">
              <mxPoint x="135" y="635" />
            </Array>
          </mxGeometry>
        </mxCell>
        <mxCell id="303ed1de8c2c98b4-99" style="edgeStyle=orthogonalEdgeStyle;html=1;startSize=6;endFill=0;endSize=6;strokeWidth=1;fontSize=16;rounded=0;endArrow=none;entryX=1;entryY=0.5;" parent="1" source="303ed1de8c2c98b4-7" target="303ed1de8c2c98b4-15" edge="1">
          <mxGeometry relative="1" as="geometry">
            <Array as="points">
              <mxPoint x="-448" y="525" />
            </Array>
          </mxGeometry>
        </mxCell>
        <mxCell id="303ed1de8c2c98b4-101" style="edgeStyle=orthogonalEdgeStyle;html=1;startSize=6;endFill=0;endSize=6;strokeWidth=1;fontSize=16;rounded=0;endArrow=none;entryX=0;entryY=0.5;" parent="1" source="303ed1de8c2c98b4-7" target="303ed1de8c2c98b4-16" edge="1">
          <mxGeometry relative="1" as="geometry">
            <Array as="points">
              <mxPoint x="-448" y="525" />
            </Array>
          </mxGeometry>
        </mxCell>
        <mxCell id="303ed1de8c2c98b4-103" style="edgeStyle=orthogonalEdgeStyle;html=1;startSize=6;endFill=0;endSize=6;strokeWidth=1;fontSize=16;rounded=0;endArrow=none;entryX=1;entryY=0.5;" parent="1" source="303ed1de8c2c98b4-8" target="303ed1de8c2c98b4-17" edge="1">
          <mxGeometry relative="1" as="geometry">
            <Array as="points">
              <mxPoint x="412" y="2040" />
            </Array>
          </mxGeometry>
        </mxCell>
        <mxCell id="303ed1de8c2c98b4-109" style="edgeStyle=orthogonalEdgeStyle;html=1;startSize=6;endFill=0;endSize=6;strokeWidth=1;fontSize=16;rounded=0;endArrow=none;entryX=1;entryY=0.5;" parent="1" source="303ed1de8c2c98b4-9" target="303ed1de8c2c98b4-19" edge="1">
          <mxGeometry relative="1" as="geometry">
            <Array as="points">
              <mxPoint x="712" y="2040" />
            </Array>
          </mxGeometry>
        </mxCell>
        <mxCell id="303ed1de8c2c98b4-114" style="edgeStyle=orthogonalEdgeStyle;html=1;startSize=6;endFill=0;endSize=6;strokeWidth=1;fontSize=16;rounded=0;endArrow=none;entryX=0;entryY=0.5;" parent="1" source="303ed1de8c2c98b4-9" target="303ed1de8c2c98b4-20" edge="1">
          <mxGeometry relative="1" as="geometry">
            <Array as="points">
              <mxPoint x="712" y="2040" />
            </Array>
          </mxGeometry>
        </mxCell>
        <mxCell id="kgQNQLbI_HPiewj2uFAK-2" value="Chung" style="whiteSpace=wrap;html=1;rounded=1;shadow=1;strokeWidth=1;fontSize=16;align=center;fillColor=#f5f5f5;strokeColor=#666666;" parent="1" vertex="1">
          <mxGeometry x="-60" y="160" width="275" height="40" as="geometry" />
        </mxCell>
        <mxCell id="kgQNQLbI_HPiewj2uFAK-49" value="Scroll" style="whiteSpace=wrap;html=1;rounded=1;shadow=1;strokeWidth=1;fontSize=16;align=center;fillColor=#f5f5f5;strokeColor=#666666;" parent="1" vertex="1">
          <mxGeometry x="-460" y="2050" width="275" height="40" as="geometry" />
        </mxCell>
        <mxCell id="kgQNQLbI_HPiewj2uFAK-51" value="Case khác" style="whiteSpace=wrap;html=1;rounded=1;shadow=1;strokeWidth=1;fontSize=16;align=center;fillColor=#f5f5f5;strokeColor=#666666;" parent="1" vertex="1">
          <mxGeometry x="-143" y="2050" width="275" height="40" as="geometry" />
        </mxCell>
        <mxCell id="kgQNQLbI_HPiewj2uFAK-60" value="Logo" style="whiteSpace=wrap;html=1;fontSize=16;fillColor=#f5f5f5;strokeColor=#666666;rounded=1;shadow=1;strokeWidth=1;" parent="1" vertex="1">
          <mxGeometry x="-205.5" y="495" width="120" height="60" as="geometry" />
        </mxCell>
        <mxCell id="kgQNQLbI_HPiewj2uFAK-65" value="Tỷ số" style="whiteSpace=wrap;html=1;fontSize=16;fillColor=#f5f5f5;strokeColor=#666666;rounded=1;shadow=1;strokeWidth=1;" parent="1" vertex="1">
          <mxGeometry x="-205.5" y="575" width="120" height="60" as="geometry" />
        </mxCell>
        <mxCell id="kgQNQLbI_HPiewj2uFAK-66" value="" style="edgeStyle=orthogonalEdgeStyle;rounded=0;orthogonalLoop=1;jettySize=auto;html=1;entryX=1;entryY=0.5;entryDx=0;entryDy=0;exitX=0;exitY=0.5;exitDx=0;exitDy=0;" parent="1" source="303ed1de8c2c98b4-10" target="kgQNQLbI_HPiewj2uFAK-65" edge="1">
          <mxGeometry relative="1" as="geometry">
            <mxPoint x="7" y="535" as="sourcePoint" />
            <mxPoint x="-75" y="535" as="targetPoint" />
          </mxGeometry>
        </mxCell>
        <mxCell id="kgQNQLbI_HPiewj2uFAK-70" value="" style="edgeStyle=orthogonalEdgeStyle;rounded=0;orthogonalLoop=1;jettySize=auto;html=1;exitX=0;exitY=0.5;exitDx=0;exitDy=0;" parent="1" source="303ed1de8c2c98b4-15" target="kgQNQLbI_HPiewj2uFAK-71" edge="1">
          <mxGeometry relative="1" as="geometry">
            <mxPoint x="-597.5" y="500" as="sourcePoint" />
          </mxGeometry>
        </mxCell>
        <mxCell id="kgQNQLbI_HPiewj2uFAK-71" value="Danh sách cầu thủ" style="whiteSpace=wrap;html=1;fontSize=16;fillColor=#f5f5f5;strokeColor=#666666;rounded=1;shadow=1;strokeWidth=1;" parent="1" vertex="1">
          <mxGeometry x="-750" y="495" width="120" height="60" as="geometry" />
        </mxCell>
        <mxCell id="kgQNQLbI_HPiewj2uFAK-117" style="edgeStyle=orthogonalEdgeStyle;rounded=0;orthogonalLoop=1;jettySize=auto;html=1;exitX=1;exitY=0.5;exitDx=0;exitDy=0;entryX=0;entryY=0.5;entryDx=0;entryDy=0;" parent="1" source="kgQNQLbI_HPiewj2uFAK-74" target="kgQNQLbI_HPiewj2uFAK-116" edge="1">
          <mxGeometry relative="1" as="geometry" />
        </mxCell>
        <mxCell id="kgQNQLbI_HPiewj2uFAK-175" style="edgeStyle=orthogonalEdgeStyle;rounded=0;orthogonalLoop=1;jettySize=auto;html=1;exitX=0.5;exitY=0;exitDx=0;exitDy=0;entryX=0.5;entryY=1;entryDx=0;entryDy=0;" parent="1" source="kgQNQLbI_HPiewj2uFAK-74" target="kgQNQLbI_HPiewj2uFAK-75" edge="1">
          <mxGeometry relative="1" as="geometry" />
        </mxCell>
        <mxCell id="kgQNQLbI_HPiewj2uFAK-74" value="Player" style="whiteSpace=wrap;html=1;rounded=1;shadow=1;strokeWidth=1;fontSize=16;align=center;fillColor=#f5f5f5;strokeColor=#666666;" parent="1" vertex="1">
          <mxGeometry x="1280" y="-60" width="200" height="40" as="geometry" />
        </mxCell>
        <mxCell id="kgQNQLbI_HPiewj2uFAK-100" style="edgeStyle=orthogonalEdgeStyle;rounded=0;orthogonalLoop=1;jettySize=auto;html=1;exitX=0.75;exitY=0;exitDx=0;exitDy=0;entryX=0;entryY=0.5;entryDx=0;entryDy=0;" parent="1" source="kgQNQLbI_HPiewj2uFAK-75" target="kgQNQLbI_HPiewj2uFAK-78" edge="1">
          <mxGeometry relative="1" as="geometry" />
        </mxCell>
        <mxCell id="kgQNQLbI_HPiewj2uFAK-101" style="edgeStyle=orthogonalEdgeStyle;rounded=0;orthogonalLoop=1;jettySize=auto;html=1;exitX=1;exitY=0.5;exitDx=0;exitDy=0;entryX=0;entryY=0.5;entryDx=0;entryDy=0;" parent="1" source="kgQNQLbI_HPiewj2uFAK-75" target="kgQNQLbI_HPiewj2uFAK-79" edge="1">
          <mxGeometry relative="1" as="geometry" />
        </mxCell>
        <mxCell id="kgQNQLbI_HPiewj2uFAK-102" style="edgeStyle=orthogonalEdgeStyle;rounded=0;orthogonalLoop=1;jettySize=auto;html=1;exitX=0.75;exitY=1;exitDx=0;exitDy=0;entryX=0;entryY=0.5;entryDx=0;entryDy=0;" parent="1" source="kgQNQLbI_HPiewj2uFAK-75" target="kgQNQLbI_HPiewj2uFAK-82" edge="1">
          <mxGeometry relative="1" as="geometry" />
        </mxCell>
        <mxCell id="kgQNQLbI_HPiewj2uFAK-176" style="edgeStyle=orthogonalEdgeStyle;rounded=0;orthogonalLoop=1;jettySize=auto;html=1;exitX=0.5;exitY=0;exitDx=0;exitDy=0;entryX=0.5;entryY=1;entryDx=0;entryDy=0;" parent="1" source="kgQNQLbI_HPiewj2uFAK-75" target="kgQNQLbI_HPiewj2uFAK-112" edge="1">
          <mxGeometry relative="1" as="geometry" />
        </mxCell>
        <mxCell id="kgQNQLbI_HPiewj2uFAK-75" value="Button &quot;Dữ liệu&quot;" style="whiteSpace=wrap;html=1;rounded=1;shadow=1;strokeWidth=1;fontSize=16;align=center;fillColor=#f5f5f5;strokeColor=#666666;" parent="1" vertex="1">
          <mxGeometry x="1280" y="-280" width="200" height="40" as="geometry" />
        </mxCell>
        <mxCell id="kgQNQLbI_HPiewj2uFAK-78" value="Label &quot;Mới&quot;" style="whiteSpace=wrap;html=1;rounded=1;shadow=1;strokeWidth=1;fontSize=16;align=center;fillColor=#f5f5f5;strokeColor=#666666;" parent="1" vertex="1">
          <mxGeometry x="1580" y="-480" width="125" height="80" as="geometry" />
        </mxCell>
        <mxCell id="kgQNQLbI_HPiewj2uFAK-79" value="Focus" style="whiteSpace=wrap;html=1;rounded=1;shadow=1;strokeWidth=1;fontSize=16;align=center;fillColor=#f5f5f5;strokeColor=#666666;" parent="1" vertex="1">
          <mxGeometry x="1580" y="-360" width="125" height="80" as="geometry" />
        </mxCell>
        <mxCell id="cXpkJefbk4sWb7GXNzCY-116" style="edgeStyle=orthogonalEdgeStyle;rounded=0;orthogonalLoop=1;jettySize=auto;html=1;exitX=0.5;exitY=0;exitDx=0;exitDy=0;entryX=0.5;entryY=1;entryDx=0;entryDy=0;" edge="1" parent="1" source="kgQNQLbI_HPiewj2uFAK-80" target="cXpkJefbk4sWb7GXNzCY-113">
          <mxGeometry relative="1" as="geometry" />
        </mxCell>
        <mxCell id="cXpkJefbk4sWb7GXNzCY-124" style="edgeStyle=orthogonalEdgeStyle;rounded=0;orthogonalLoop=1;jettySize=auto;html=1;exitX=1;exitY=0.5;exitDx=0;exitDy=0;entryX=0;entryY=0.5;entryDx=0;entryDy=0;" edge="1" parent="1" source="kgQNQLbI_HPiewj2uFAK-80" target="kgQNQLbI_HPiewj2uFAK-81">
          <mxGeometry relative="1" as="geometry" />
        </mxCell>
        <mxCell id="cXpkJefbk4sWb7GXNzCY-179" style="edgeStyle=orthogonalEdgeStyle;rounded=0;orthogonalLoop=1;jettySize=auto;html=1;exitX=1;exitY=0.25;exitDx=0;exitDy=0;entryX=0;entryY=0.5;entryDx=0;entryDy=0;" edge="1" parent="1" source="kgQNQLbI_HPiewj2uFAK-80" target="kgQNQLbI_HPiewj2uFAK-114">
          <mxGeometry relative="1" as="geometry" />
        </mxCell>
        <mxCell id="kgQNQLbI_HPiewj2uFAK-80" value="Thông số" style="whiteSpace=wrap;html=1;rounded=1;shadow=1;strokeWidth=1;fontSize=16;align=center;fillColor=#f5f5f5;strokeColor=#666666;" parent="1" vertex="1">
          <mxGeometry x="1560" y="-600" width="200" height="40" as="geometry" />
        </mxCell>
        <mxCell id="kgQNQLbI_HPiewj2uFAK-106" style="edgeStyle=orthogonalEdgeStyle;rounded=0;orthogonalLoop=1;jettySize=auto;html=1;exitX=0.75;exitY=0;exitDx=0;exitDy=0;entryX=0;entryY=0.5;entryDx=0;entryDy=0;" parent="1" source="kgQNQLbI_HPiewj2uFAK-81" target="kgQNQLbI_HPiewj2uFAK-105" edge="1">
          <mxGeometry relative="1" as="geometry" />
        </mxCell>
        <mxCell id="kgQNQLbI_HPiewj2uFAK-107" style="edgeStyle=orthogonalEdgeStyle;rounded=0;orthogonalLoop=1;jettySize=auto;html=1;exitX=1;exitY=0.5;exitDx=0;exitDy=0;entryX=0;entryY=0.5;entryDx=0;entryDy=0;" parent="1" source="kgQNQLbI_HPiewj2uFAK-81" target="kgQNQLbI_HPiewj2uFAK-104" edge="1">
          <mxGeometry relative="1" as="geometry" />
        </mxCell>
        <mxCell id="kgQNQLbI_HPiewj2uFAK-108" style="edgeStyle=orthogonalEdgeStyle;rounded=0;orthogonalLoop=1;jettySize=auto;html=1;exitX=0.75;exitY=1;exitDx=0;exitDy=0;entryX=0;entryY=0.5;entryDx=0;entryDy=0;" parent="1" source="kgQNQLbI_HPiewj2uFAK-81" target="kgQNQLbI_HPiewj2uFAK-103" edge="1">
          <mxGeometry relative="1" as="geometry" />
        </mxCell>
        <mxCell id="kgQNQLbI_HPiewj2uFAK-81" value="Focus" style="whiteSpace=wrap;html=1;rounded=1;shadow=1;strokeWidth=1;fontSize=16;align=center;fillColor=#f5f5f5;strokeColor=#666666;" parent="1" vertex="1">
          <mxGeometry x="2001" y="-579" width="125" height="80" as="geometry" />
        </mxCell>
        <mxCell id="kgQNQLbI_HPiewj2uFAK-82" value="Tips lần đầu dùng" style="whiteSpace=wrap;html=1;rounded=1;shadow=1;strokeWidth=1;fontSize=16;align=center;fillColor=#f5f5f5;strokeColor=#666666;" parent="1" vertex="1">
          <mxGeometry x="1580" y="-230" width="125" height="80" as="geometry" />
        </mxCell>
        <mxCell id="kgQNQLbI_HPiewj2uFAK-169" value="" style="edgeStyle=orthogonalEdgeStyle;rounded=0;orthogonalLoop=1;jettySize=auto;html=1;" parent="1" source="kgQNQLbI_HPiewj2uFAK-103" target="kgQNQLbI_HPiewj2uFAK-168" edge="1">
          <mxGeometry relative="1" as="geometry" />
        </mxCell>
        <mxCell id="kgQNQLbI_HPiewj2uFAK-171" value="" style="edgeStyle=orthogonalEdgeStyle;rounded=0;orthogonalLoop=1;jettySize=auto;html=1;" parent="1" source="kgQNQLbI_HPiewj2uFAK-103" target="kgQNQLbI_HPiewj2uFAK-170" edge="1">
          <mxGeometry relative="1" as="geometry" />
        </mxCell>
        <mxCell id="kgQNQLbI_HPiewj2uFAK-103" value="Ko focus" style="whiteSpace=wrap;html=1;rounded=1;shadow=1;strokeWidth=1;fontSize=16;align=center;fillColor=#f5f5f5;strokeColor=#666666;" parent="1" vertex="1">
          <mxGeometry x="2222" y="-465" width="125" height="50" as="geometry" />
        </mxCell>
        <mxCell id="kgQNQLbI_HPiewj2uFAK-167" value="" style="edgeStyle=orthogonalEdgeStyle;rounded=0;orthogonalLoop=1;jettySize=auto;html=1;" parent="1" source="kgQNQLbI_HPiewj2uFAK-104" target="kgQNQLbI_HPiewj2uFAK-166" edge="1">
          <mxGeometry relative="1" as="geometry" />
        </mxCell>
        <mxCell id="kgQNQLbI_HPiewj2uFAK-104" value="Có focus" style="whiteSpace=wrap;html=1;rounded=1;shadow=1;strokeWidth=1;fontSize=16;align=center;fillColor=#f5f5f5;strokeColor=#666666;" parent="1" vertex="1">
          <mxGeometry x="2222" y="-540" width="125" height="50" as="geometry" />
        </mxCell>
        <mxCell id="kgQNQLbI_HPiewj2uFAK-105" value="Vị trí focus" style="whiteSpace=wrap;html=1;rounded=1;shadow=1;strokeWidth=1;fontSize=16;align=center;fillColor=#f5f5f5;strokeColor=#666666;" parent="1" vertex="1">
          <mxGeometry x="2222" y="-620" width="125" height="41" as="geometry" />
        </mxCell>
        <mxCell id="kgQNQLbI_HPiewj2uFAK-109" style="edgeStyle=orthogonalEdgeStyle;rounded=0;orthogonalLoop=1;jettySize=auto;html=1;exitX=0.5;exitY=1;exitDx=0;exitDy=0;" parent="1" source="kgQNQLbI_HPiewj2uFAK-105" target="kgQNQLbI_HPiewj2uFAK-105" edge="1">
          <mxGeometry relative="1" as="geometry" />
        </mxCell>
        <mxCell id="kgQNQLbI_HPiewj2uFAK-130" style="edgeStyle=orthogonalEdgeStyle;rounded=0;orthogonalLoop=1;jettySize=auto;html=1;exitX=1;exitY=0.25;exitDx=0;exitDy=0;entryX=0;entryY=0.5;entryDx=0;entryDy=0;" parent="1" source="kgQNQLbI_HPiewj2uFAK-110" target="kgQNQLbI_HPiewj2uFAK-124" edge="1">
          <mxGeometry relative="1" as="geometry" />
        </mxCell>
        <mxCell id="kgQNQLbI_HPiewj2uFAK-131" style="edgeStyle=orthogonalEdgeStyle;rounded=0;orthogonalLoop=1;jettySize=auto;html=1;exitX=1;exitY=0.75;exitDx=0;exitDy=0;entryX=0;entryY=0.5;entryDx=0;entryDy=0;" parent="1" source="kgQNQLbI_HPiewj2uFAK-110" target="kgQNQLbI_HPiewj2uFAK-125" edge="1">
          <mxGeometry relative="1" as="geometry" />
        </mxCell>
        <mxCell id="kgQNQLbI_HPiewj2uFAK-110" value="Scoreboard" style="whiteSpace=wrap;html=1;rounded=1;shadow=1;strokeWidth=1;fontSize=16;align=center;fillColor=#f5f5f5;strokeColor=#666666;" parent="1" vertex="1">
          <mxGeometry x="2001" y="-1433" width="125" height="80" as="geometry" />
        </mxCell>
        <mxCell id="kgQNQLbI_HPiewj2uFAK-121" style="edgeStyle=orthogonalEdgeStyle;rounded=0;orthogonalLoop=1;jettySize=auto;html=1;exitX=0.75;exitY=1;exitDx=0;exitDy=0;entryX=0;entryY=0.5;entryDx=0;entryDy=0;" parent="1" source="kgQNQLbI_HPiewj2uFAK-112" target="kgQNQLbI_HPiewj2uFAK-80" edge="1">
          <mxGeometry relative="1" as="geometry" />
        </mxCell>
        <mxCell id="cXpkJefbk4sWb7GXNzCY-145" style="edgeStyle=orthogonalEdgeStyle;rounded=0;orthogonalLoop=1;jettySize=auto;html=1;exitX=0.75;exitY=0;exitDx=0;exitDy=0;entryX=0;entryY=0.5;entryDx=0;entryDy=0;" edge="1" parent="1" source="kgQNQLbI_HPiewj2uFAK-112" target="cXpkJefbk4sWb7GXNzCY-72">
          <mxGeometry relative="1" as="geometry" />
        </mxCell>
        <mxCell id="kgQNQLbI_HPiewj2uFAK-112" value="Datafeed" style="whiteSpace=wrap;html=1;rounded=1;shadow=1;strokeWidth=1;fontSize=16;align=center;fillColor=#f5f5f5;strokeColor=#666666;" parent="1" vertex="1">
          <mxGeometry x="1280" y="-680" width="200" height="40" as="geometry" />
        </mxCell>
        <mxCell id="kgQNQLbI_HPiewj2uFAK-143" style="edgeStyle=orthogonalEdgeStyle;rounded=0;orthogonalLoop=1;jettySize=auto;html=1;exitX=1;exitY=0.75;exitDx=0;exitDy=0;entryX=0;entryY=0.5;entryDx=0;entryDy=0;" parent="1" source="kgQNQLbI_HPiewj2uFAK-113" target="cXpkJefbk4sWb7GXNzCY-30" edge="1">
          <mxGeometry relative="1" as="geometry">
            <mxPoint x="2221" y="-1893.4999999999998" as="targetPoint" />
          </mxGeometry>
        </mxCell>
        <mxCell id="kgQNQLbI_HPiewj2uFAK-144" style="edgeStyle=orthogonalEdgeStyle;rounded=0;orthogonalLoop=1;jettySize=auto;html=1;exitX=1;exitY=0.25;exitDx=0;exitDy=0;entryX=0;entryY=0.5;entryDx=0;entryDy=0;" parent="1" source="kgQNQLbI_HPiewj2uFAK-113" target="cXpkJefbk4sWb7GXNzCY-31" edge="1">
          <mxGeometry relative="1" as="geometry">
            <mxPoint x="2221" y="-1963.4999999999998" as="targetPoint" />
          </mxGeometry>
        </mxCell>
        <mxCell id="kgQNQLbI_HPiewj2uFAK-113" value="Scroll" style="whiteSpace=wrap;html=1;rounded=1;shadow=1;strokeWidth=1;fontSize=16;align=center;fillColor=#f5f5f5;strokeColor=#666666;" parent="1" vertex="1">
          <mxGeometry x="2001" y="-1973" width="125" height="80" as="geometry" />
        </mxCell>
        <mxCell id="kgQNQLbI_HPiewj2uFAK-145" value="" style="edgeStyle=orthogonalEdgeStyle;rounded=0;orthogonalLoop=1;jettySize=auto;html=1;entryX=0;entryY=0.5;entryDx=0;entryDy=0;" parent="1" source="kgQNQLbI_HPiewj2uFAK-114" target="kgQNQLbI_HPiewj2uFAK-148" edge="1">
          <mxGeometry relative="1" as="geometry" />
        </mxCell>
        <mxCell id="kgQNQLbI_HPiewj2uFAK-150" style="edgeStyle=orthogonalEdgeStyle;rounded=0;orthogonalLoop=1;jettySize=auto;html=1;exitX=1;exitY=0.75;exitDx=0;exitDy=0;entryX=0;entryY=0.25;entryDx=0;entryDy=0;" parent="1" source="kgQNQLbI_HPiewj2uFAK-114" target="kgQNQLbI_HPiewj2uFAK-137" edge="1">
          <mxGeometry relative="1" as="geometry">
            <Array as="points">
              <mxPoint x="2150" y="-850" />
              <mxPoint x="2150" y="-740" />
            </Array>
          </mxGeometry>
        </mxCell>
        <mxCell id="cXpkJefbk4sWb7GXNzCY-63" style="edgeStyle=orthogonalEdgeStyle;rounded=0;orthogonalLoop=1;jettySize=auto;html=1;exitX=1;exitY=0.25;exitDx=0;exitDy=0;entryX=0;entryY=0.5;entryDx=0;entryDy=0;" edge="1" parent="1" source="kgQNQLbI_HPiewj2uFAK-114" target="cXpkJefbk4sWb7GXNzCY-60">
          <mxGeometry relative="1" as="geometry" />
        </mxCell>
        <mxCell id="cXpkJefbk4sWb7GXNzCY-66" style="edgeStyle=orthogonalEdgeStyle;rounded=0;orthogonalLoop=1;jettySize=auto;html=1;exitX=0.75;exitY=0;exitDx=0;exitDy=0;entryX=0;entryY=0.5;entryDx=0;entryDy=0;" edge="1" parent="1" source="kgQNQLbI_HPiewj2uFAK-114" target="cXpkJefbk4sWb7GXNzCY-64">
          <mxGeometry relative="1" as="geometry" />
        </mxCell>
        <mxCell id="kgQNQLbI_HPiewj2uFAK-114" value="Chỉ số trận đấu" style="whiteSpace=wrap;html=1;rounded=1;shadow=1;strokeWidth=1;fontSize=16;align=center;fillColor=#f5f5f5;strokeColor=#666666;" parent="1" vertex="1">
          <mxGeometry x="2000" y="-910" width="125" height="80" as="geometry" />
        </mxCell>
        <mxCell id="kgQNQLbI_HPiewj2uFAK-159" style="edgeStyle=orthogonalEdgeStyle;rounded=0;orthogonalLoop=1;jettySize=auto;html=1;exitX=1;exitY=0.25;exitDx=0;exitDy=0;entryX=0;entryY=0.5;entryDx=0;entryDy=0;" parent="1" source="kgQNQLbI_HPiewj2uFAK-116" target="kgQNQLbI_HPiewj2uFAK-152" edge="1">
          <mxGeometry relative="1" as="geometry" />
        </mxCell>
        <mxCell id="kgQNQLbI_HPiewj2uFAK-160" style="edgeStyle=orthogonalEdgeStyle;rounded=0;orthogonalLoop=1;jettySize=auto;html=1;exitX=1;exitY=0.5;exitDx=0;exitDy=0;entryX=0;entryY=0.5;entryDx=0;entryDy=0;" parent="1" source="kgQNQLbI_HPiewj2uFAK-116" target="kgQNQLbI_HPiewj2uFAK-153" edge="1">
          <mxGeometry relative="1" as="geometry" />
        </mxCell>
        <mxCell id="kgQNQLbI_HPiewj2uFAK-161" style="edgeStyle=orthogonalEdgeStyle;rounded=0;orthogonalLoop=1;jettySize=auto;html=1;exitX=1;exitY=0.75;exitDx=0;exitDy=0;entryX=0;entryY=0.5;entryDx=0;entryDy=0;" parent="1" source="kgQNQLbI_HPiewj2uFAK-116" target="kgQNQLbI_HPiewj2uFAK-154" edge="1">
          <mxGeometry relative="1" as="geometry" />
        </mxCell>
        <mxCell id="kgQNQLbI_HPiewj2uFAK-116" value="Snackbar" style="whiteSpace=wrap;html=1;rounded=1;shadow=1;strokeWidth=1;fontSize=16;align=center;fillColor=#f5f5f5;strokeColor=#666666;" parent="1" vertex="1">
          <mxGeometry x="1580" y="-80" width="125" height="80" as="geometry" />
        </mxCell>
        <mxCell id="kgQNQLbI_HPiewj2uFAK-123" value="Header" style="whiteSpace=wrap;html=1;rounded=1;shadow=1;strokeWidth=1;fontSize=16;align=center;fillColor=#f5f5f5;strokeColor=#666666;" parent="1" vertex="1">
          <mxGeometry x="2001" y="-1303" width="125" height="80" as="geometry" />
        </mxCell>
        <mxCell id="kgQNQLbI_HPiewj2uFAK-124" value="Logo" style="whiteSpace=wrap;html=1;rounded=1;shadow=1;strokeWidth=1;fontSize=16;align=center;fillColor=#f5f5f5;strokeColor=#666666;" parent="1" vertex="1">
          <mxGeometry x="2221" y="-1463" width="125" height="41" as="geometry" />
        </mxCell>
        <mxCell id="kgQNQLbI_HPiewj2uFAK-125" value="Tên đội" style="whiteSpace=wrap;html=1;rounded=1;shadow=1;strokeWidth=1;fontSize=16;align=center;fillColor=#f5f5f5;strokeColor=#666666;" parent="1" vertex="1">
          <mxGeometry x="2221" y="-1394" width="125" height="41" as="geometry" />
        </mxCell>
        <mxCell id="cXpkJefbk4sWb7GXNzCY-11" style="edgeStyle=orthogonalEdgeStyle;rounded=0;orthogonalLoop=1;jettySize=auto;html=1;exitX=1;exitY=0.5;exitDx=0;exitDy=0;" edge="1" parent="1" source="kgQNQLbI_HPiewj2uFAK-126" target="cXpkJefbk4sWb7GXNzCY-4">
          <mxGeometry relative="1" as="geometry" />
        </mxCell>
        <mxCell id="cXpkJefbk4sWb7GXNzCY-22" style="edgeStyle=orthogonalEdgeStyle;rounded=0;orthogonalLoop=1;jettySize=auto;html=1;exitX=1;exitY=0.25;exitDx=0;exitDy=0;entryX=0;entryY=0.5;entryDx=0;entryDy=0;" edge="1" parent="1" source="kgQNQLbI_HPiewj2uFAK-126" target="cXpkJefbk4sWb7GXNzCY-21">
          <mxGeometry relative="1" as="geometry" />
        </mxCell>
        <mxCell id="kgQNQLbI_HPiewj2uFAK-126" value="Thời gian trận đấu" style="whiteSpace=wrap;html=1;rounded=1;shadow=1;strokeWidth=1;fontSize=16;align=center;fillColor=#f5f5f5;strokeColor=#666666;" parent="1" vertex="1">
          <mxGeometry x="2001" y="-1624" width="125" height="80" as="geometry" />
        </mxCell>
        <mxCell id="kgQNQLbI_HPiewj2uFAK-127" value="Tỷ số" style="whiteSpace=wrap;html=1;rounded=1;shadow=1;strokeWidth=1;fontSize=16;align=center;fillColor=#f5f5f5;strokeColor=#666666;" parent="1" vertex="1">
          <mxGeometry x="2001" y="-1714" width="125" height="80" as="geometry" />
        </mxCell>
        <mxCell id="kgQNQLbI_HPiewj2uFAK-134" style="edgeStyle=orthogonalEdgeStyle;rounded=0;orthogonalLoop=1;jettySize=auto;html=1;exitX=1;exitY=0.25;exitDx=0;exitDy=0;entryX=0;entryY=0.5;entryDx=0;entryDy=0;" parent="1" source="kgQNQLbI_HPiewj2uFAK-128" target="kgQNQLbI_HPiewj2uFAK-129" edge="1">
          <mxGeometry relative="1" as="geometry" />
        </mxCell>
        <mxCell id="kgQNQLbI_HPiewj2uFAK-135" style="edgeStyle=orthogonalEdgeStyle;rounded=0;orthogonalLoop=1;jettySize=auto;html=1;exitX=1;exitY=0.5;exitDx=0;exitDy=0;entryX=0;entryY=0.5;entryDx=0;entryDy=0;" parent="1" source="kgQNQLbI_HPiewj2uFAK-128" target="kgQNQLbI_HPiewj2uFAK-132" edge="1">
          <mxGeometry relative="1" as="geometry" />
        </mxCell>
        <mxCell id="kgQNQLbI_HPiewj2uFAK-136" style="edgeStyle=orthogonalEdgeStyle;rounded=0;orthogonalLoop=1;jettySize=auto;html=1;exitX=1;exitY=0.75;exitDx=0;exitDy=0;entryX=0;entryY=0.5;entryDx=0;entryDy=0;" parent="1" source="kgQNQLbI_HPiewj2uFAK-128" target="kgQNQLbI_HPiewj2uFAK-133" edge="1">
          <mxGeometry relative="1" as="geometry" />
        </mxCell>
        <mxCell id="kgQNQLbI_HPiewj2uFAK-128" value="Danh sách ghi bàn" style="whiteSpace=wrap;html=1;rounded=1;shadow=1;strokeWidth=1;fontSize=16;align=center;fillColor=#f5f5f5;strokeColor=#666666;" parent="1" vertex="1">
          <mxGeometry x="2001" y="-1823" width="125" height="80" as="geometry" />
        </mxCell>
        <mxCell id="kgQNQLbI_HPiewj2uFAK-129" value="Tên cầu thủ" style="whiteSpace=wrap;html=1;rounded=1;shadow=1;strokeWidth=1;fontSize=16;align=center;fillColor=#f5f5f5;strokeColor=#666666;" parent="1" vertex="1">
          <mxGeometry x="2221" y="-1854" width="125" height="41" as="geometry" />
        </mxCell>
        <mxCell id="cXpkJefbk4sWb7GXNzCY-19" value="" style="edgeStyle=orthogonalEdgeStyle;rounded=0;orthogonalLoop=1;jettySize=auto;html=1;" edge="1" parent="1" source="kgQNQLbI_HPiewj2uFAK-132" target="cXpkJefbk4sWb7GXNzCY-18">
          <mxGeometry relative="1" as="geometry" />
        </mxCell>
        <mxCell id="kgQNQLbI_HPiewj2uFAK-132" value="Số phút" style="whiteSpace=wrap;html=1;rounded=1;shadow=1;strokeWidth=1;fontSize=16;align=center;fillColor=#f5f5f5;strokeColor=#666666;" parent="1" vertex="1">
          <mxGeometry x="2221" y="-1803.5" width="125" height="41" as="geometry" />
        </mxCell>
        <mxCell id="kgQNQLbI_HPiewj2uFAK-133" value="Icon ghi bàn" style="whiteSpace=wrap;html=1;rounded=1;shadow=1;strokeWidth=1;fontSize=16;align=center;fillColor=#f5f5f5;strokeColor=#666666;" parent="1" vertex="1">
          <mxGeometry x="2221" y="-1754" width="125" height="41" as="geometry" />
        </mxCell>
        <mxCell id="kgQNQLbI_HPiewj2uFAK-139" style="edgeStyle=orthogonalEdgeStyle;rounded=0;orthogonalLoop=1;jettySize=auto;html=1;exitX=1;exitY=0.5;exitDx=0;exitDy=0;entryX=0;entryY=0.5;entryDx=0;entryDy=0;" parent="1" source="kgQNQLbI_HPiewj2uFAK-137" edge="1">
          <mxGeometry relative="1" as="geometry">
            <mxPoint x="2420" y="-729.9999999999998" as="targetPoint" />
          </mxGeometry>
        </mxCell>
        <mxCell id="kgQNQLbI_HPiewj2uFAK-137" value="20 thông số" style="whiteSpace=wrap;html=1;rounded=1;shadow=1;strokeWidth=1;fontSize=16;align=center;fillColor=#f5f5f5;strokeColor=#666666;" parent="1" vertex="1">
          <mxGeometry x="2220" y="-750.5" width="125" height="41" as="geometry" />
        </mxCell>
        <mxCell id="kgQNQLbI_HPiewj2uFAK-151" style="edgeStyle=orthogonalEdgeStyle;rounded=0;orthogonalLoop=1;jettySize=auto;html=1;exitX=1;exitY=0.5;exitDx=0;exitDy=0;" parent="1" source="kgQNQLbI_HPiewj2uFAK-148" edge="1">
          <mxGeometry relative="1" as="geometry">
            <mxPoint x="2420" y="-819.4999999999998" as="targetPoint" />
          </mxGeometry>
        </mxCell>
        <mxCell id="kgQNQLbI_HPiewj2uFAK-148" value="Hiển thị 7.5 thông số" style="whiteSpace=wrap;html=1;rounded=1;shadow=1;strokeWidth=1;fontSize=16;align=center;fillColor=#f5f5f5;strokeColor=#666666;" parent="1" vertex="1">
          <mxGeometry x="2220" y="-840" width="125" height="41" as="geometry" />
        </mxCell>
        <mxCell id="kgQNQLbI_HPiewj2uFAK-152" value="Di chuyển" style="whiteSpace=wrap;html=1;rounded=1;shadow=1;strokeWidth=1;fontSize=16;align=center;fillColor=#f5f5f5;strokeColor=#666666;" parent="1" vertex="1">
          <mxGeometry x="1760" y="-130" width="125" height="50" as="geometry" />
        </mxCell>
        <mxCell id="kgQNQLbI_HPiewj2uFAK-158" value="" style="edgeStyle=orthogonalEdgeStyle;rounded=0;orthogonalLoop=1;jettySize=auto;html=1;" parent="1" source="kgQNQLbI_HPiewj2uFAK-153" target="kgQNQLbI_HPiewj2uFAK-157" edge="1">
          <mxGeometry relative="1" as="geometry" />
        </mxCell>
        <mxCell id="kgQNQLbI_HPiewj2uFAK-153" value="Đóng" style="whiteSpace=wrap;html=1;rounded=1;shadow=1;strokeWidth=1;fontSize=16;align=center;fillColor=#f5f5f5;strokeColor=#666666;" parent="1" vertex="1">
          <mxGeometry x="1760" y="-65" width="125" height="50" as="geometry" />
        </mxCell>
        <mxCell id="kgQNQLbI_HPiewj2uFAK-165" value="" style="edgeStyle=orthogonalEdgeStyle;rounded=0;orthogonalLoop=1;jettySize=auto;html=1;" parent="1" source="kgQNQLbI_HPiewj2uFAK-154" target="kgQNQLbI_HPiewj2uFAK-164" edge="1">
          <mxGeometry relative="1" as="geometry" />
        </mxCell>
        <mxCell id="kgQNQLbI_HPiewj2uFAK-154" value="Thử ngay" style="whiteSpace=wrap;html=1;rounded=1;shadow=1;strokeWidth=1;fontSize=16;align=center;fillColor=#f5f5f5;strokeColor=#666666;" parent="1" vertex="1">
          <mxGeometry x="1760" width="125" height="50" as="geometry" />
        </mxCell>
        <mxCell id="kgQNQLbI_HPiewj2uFAK-157" value="Tiếp tục play sự kiện" style="whiteSpace=wrap;html=1;rounded=1;shadow=1;strokeWidth=1;fontSize=16;align=center;fillColor=#00CCCC;strokeColor=#666666;" parent="1" vertex="1">
          <mxGeometry x="1965" y="-65" width="125" height="50" as="geometry" />
        </mxCell>
        <mxCell id="kgQNQLbI_HPiewj2uFAK-164" value="Datafeed" style="whiteSpace=wrap;html=1;rounded=1;shadow=1;strokeWidth=1;fontSize=16;align=center;fillColor=#00CCCC;strokeColor=#666666;" parent="1" vertex="1">
          <mxGeometry x="1965" width="125" height="50" as="geometry" />
        </mxCell>
        <mxCell id="kgQNQLbI_HPiewj2uFAK-166" value="Icon đen nền trắng" style="whiteSpace=wrap;html=1;fontSize=16;fillColor=#00CCCC;strokeColor=#666666;rounded=1;shadow=1;strokeWidth=1;" parent="1" vertex="1">
          <mxGeometry x="2429.5" y="-545" width="120" height="60" as="geometry" />
        </mxCell>
        <mxCell id="kgQNQLbI_HPiewj2uFAK-173" value="" style="edgeStyle=orthogonalEdgeStyle;rounded=0;orthogonalLoop=1;jettySize=auto;html=1;" parent="1" source="kgQNQLbI_HPiewj2uFAK-168" target="kgQNQLbI_HPiewj2uFAK-172" edge="1">
          <mxGeometry relative="1" as="geometry" />
        </mxCell>
        <mxCell id="cXpkJefbk4sWb7GXNzCY-33" style="edgeStyle=orthogonalEdgeStyle;rounded=0;orthogonalLoop=1;jettySize=auto;html=1;exitX=1;exitY=0.75;exitDx=0;exitDy=0;entryX=0;entryY=0.5;entryDx=0;entryDy=0;" edge="1" parent="1" source="kgQNQLbI_HPiewj2uFAK-168" target="cXpkJefbk4sWb7GXNzCY-32">
          <mxGeometry relative="1" as="geometry" />
        </mxCell>
        <mxCell id="kgQNQLbI_HPiewj2uFAK-168" value="Active" style="whiteSpace=wrap;html=1;fontSize=16;fillColor=#f5f5f5;strokeColor=#666666;rounded=1;shadow=1;strokeWidth=1;" parent="1" vertex="1">
          <mxGeometry x="2429.5" y="-470" width="120" height="60" as="geometry" />
        </mxCell>
        <mxCell id="kgQNQLbI_HPiewj2uFAK-170" value="Icon trắng nền đen" style="whiteSpace=wrap;html=1;fontSize=16;fillColor=#00CCCC;strokeColor=#666666;rounded=1;shadow=1;strokeWidth=1;" parent="1" vertex="1">
          <mxGeometry x="2224.5" y="-340" width="120" height="60" as="geometry" />
        </mxCell>
        <mxCell id="kgQNQLbI_HPiewj2uFAK-172" value="Icon trắng nền xám" style="whiteSpace=wrap;html=1;fontSize=16;fillColor=#00CCCC;strokeColor=#666666;rounded=1;shadow=1;strokeWidth=1;" parent="1" vertex="1">
          <mxGeometry x="2629.5" y="-470" width="120" height="60" as="geometry" />
        </mxCell>
        <mxCell id="cXpkJefbk4sWb7GXNzCY-1" value="min:s" style="whiteSpace=wrap;html=1;fontSize=16;fillColor=#00CCCC;strokeColor=#666666;rounded=1;shadow=1;strokeWidth=1;" vertex="1" parent="1">
          <mxGeometry x="2429.5" y="-1627" width="120" height="60" as="geometry" />
        </mxCell>
        <mxCell id="cXpkJefbk4sWb7GXNzCY-2" value="Fulltime" style="whiteSpace=wrap;html=1;fontSize=16;fillColor=#00CCCC;strokeColor=#666666;rounded=1;shadow=1;strokeWidth=1;" vertex="1" parent="1">
          <mxGeometry x="2429.5" y="-1546" width="120" height="60" as="geometry" />
        </mxCell>
        <mxCell id="cXpkJefbk4sWb7GXNzCY-8" value="" style="edgeStyle=orthogonalEdgeStyle;rounded=0;orthogonalLoop=1;jettySize=auto;html=1;entryX=0;entryY=0.5;entryDx=0;entryDy=0;" edge="1" parent="1" source="cXpkJefbk4sWb7GXNzCY-4" target="cXpkJefbk4sWb7GXNzCY-1">
          <mxGeometry relative="1" as="geometry">
            <Array as="points">
              <mxPoint x="2388" y="-1556" />
              <mxPoint x="2388" y="-1597" />
            </Array>
          </mxGeometry>
        </mxCell>
        <mxCell id="cXpkJefbk4sWb7GXNzCY-14" value="Không" style="edgeLabel;html=1;align=center;verticalAlign=middle;resizable=0;points=[];" vertex="1" connectable="0" parent="cXpkJefbk4sWb7GXNzCY-8">
          <mxGeometry x="-0.4449" y="4" relative="1" as="geometry">
            <mxPoint as="offset" />
          </mxGeometry>
        </mxCell>
        <mxCell id="cXpkJefbk4sWb7GXNzCY-10" style="edgeStyle=orthogonalEdgeStyle;rounded=0;orthogonalLoop=1;jettySize=auto;html=1;exitX=1;exitY=0.75;exitDx=0;exitDy=0;entryX=0;entryY=0.5;entryDx=0;entryDy=0;" edge="1" parent="1" source="cXpkJefbk4sWb7GXNzCY-4" target="cXpkJefbk4sWb7GXNzCY-2">
          <mxGeometry relative="1" as="geometry" />
        </mxCell>
        <mxCell id="cXpkJefbk4sWb7GXNzCY-15" value="Có" style="edgeLabel;html=1;align=center;verticalAlign=middle;resizable=0;points=[];" vertex="1" connectable="0" parent="cXpkJefbk4sWb7GXNzCY-10">
          <mxGeometry x="-0.2677" y="3" relative="1" as="geometry">
            <mxPoint as="offset" />
          </mxGeometry>
        </mxCell>
        <mxCell id="cXpkJefbk4sWb7GXNzCY-4" value="Hết giờ" style="whiteSpace=wrap;html=1;rounded=1;shadow=1;strokeWidth=1;fontSize=16;align=center;fillColor=#f5f5f5;strokeColor=#666666;" vertex="1" parent="1">
          <mxGeometry x="2222" y="-1567" width="125" height="41" as="geometry" />
        </mxCell>
        <mxCell id="cXpkJefbk4sWb7GXNzCY-18" value="mờ" style="whiteSpace=wrap;html=1;fontSize=16;fillColor=#00CCCC;strokeColor=#666666;rounded=1;shadow=1;strokeWidth=1;" vertex="1" parent="1">
          <mxGeometry x="2429.5" y="-1813" width="120" height="60" as="geometry" />
        </mxCell>
        <mxCell id="cXpkJefbk4sWb7GXNzCY-21" value="mờ" style="whiteSpace=wrap;html=1;fontSize=16;fillColor=#00CCCC;strokeColor=#666666;rounded=1;shadow=1;strokeWidth=1;" vertex="1" parent="1">
          <mxGeometry x="2221" y="-1654" width="120" height="60" as="geometry" />
        </mxCell>
        <mxCell id="cXpkJefbk4sWb7GXNzCY-30" value="Không có thanh cuộn" style="whiteSpace=wrap;html=1;fontSize=16;fillColor=#00CCCC;strokeColor=#666666;rounded=1;shadow=1;strokeWidth=1;" vertex="1" parent="1">
          <mxGeometry x="2221" y="-1930" width="120" height="60" as="geometry" />
        </mxCell>
        <mxCell id="cXpkJefbk4sWb7GXNzCY-31" value="Chỉ cuộn dữ liệu trong" style="whiteSpace=wrap;html=1;fontSize=16;fillColor=#00CCCC;strokeColor=#666666;rounded=1;shadow=1;strokeWidth=1;" vertex="1" parent="1">
          <mxGeometry x="2221" y="-2000" width="120" height="60" as="geometry" />
        </mxCell>
        <mxCell id="cXpkJefbk4sWb7GXNzCY-32" value="ND viền trắng" style="whiteSpace=wrap;html=1;fontSize=16;fillColor=#00CCCC;strokeColor=#666666;rounded=1;shadow=1;strokeWidth=1;" vertex="1" parent="1">
          <mxGeometry x="2629.5" y="-390" width="120" height="60" as="geometry" />
        </mxCell>
        <mxCell id="cXpkJefbk4sWb7GXNzCY-34" value="Không hiện thông số không có dữ liệu" style="whiteSpace=wrap;html=1;fontSize=16;fillColor=#00CCCC;strokeColor=#666666;rounded=1;shadow=1;strokeWidth=1;" vertex="1" parent="1">
          <mxGeometry x="2420" y="-760" width="120" height="60" as="geometry" />
        </mxCell>
        <mxCell id="cXpkJefbk4sWb7GXNzCY-35" value="Scroll để xem thêm" style="whiteSpace=wrap;html=1;fontSize=16;fillColor=#00CCCC;strokeColor=#666666;rounded=1;shadow=1;strokeWidth=1;" vertex="1" parent="1">
          <mxGeometry x="2420" y="-849.5" width="120" height="60" as="geometry" />
        </mxCell>
        <mxCell id="cXpkJefbk4sWb7GXNzCY-40" value="" style="edgeStyle=orthogonalEdgeStyle;rounded=0;orthogonalLoop=1;jettySize=auto;html=1;" edge="1" parent="1" source="cXpkJefbk4sWb7GXNzCY-38" target="cXpkJefbk4sWb7GXNzCY-39">
          <mxGeometry relative="1" as="geometry" />
        </mxCell>
        <mxCell id="cXpkJefbk4sWb7GXNzCY-42" value="" style="edgeStyle=orthogonalEdgeStyle;rounded=0;orthogonalLoop=1;jettySize=auto;html=1;" edge="1" parent="1" source="cXpkJefbk4sWb7GXNzCY-38" target="cXpkJefbk4sWb7GXNzCY-41">
          <mxGeometry relative="1" as="geometry" />
        </mxCell>
        <mxCell id="cXpkJefbk4sWb7GXNzCY-38" value="Snackbar" style="whiteSpace=wrap;html=1;rounded=1;shadow=1;strokeWidth=1;fontSize=16;align=center;fillColor=#f5f5f5;strokeColor=#666666;" vertex="1" parent="1">
          <mxGeometry x="1880" y="440" width="200" height="40" as="geometry" />
        </mxCell>
        <mxCell id="cXpkJefbk4sWb7GXNzCY-356" style="edgeStyle=orthogonalEdgeStyle;rounded=0;orthogonalLoop=1;jettySize=auto;html=1;exitX=0.5;exitY=1;exitDx=0;exitDy=0;entryX=0.5;entryY=0;entryDx=0;entryDy=0;" edge="1" parent="1" source="cXpkJefbk4sWb7GXNzCY-39" target="cXpkJefbk4sWb7GXNzCY-355">
          <mxGeometry relative="1" as="geometry" />
        </mxCell>
        <mxCell id="cXpkJefbk4sWb7GXNzCY-39" value="Thử ngay" style="whiteSpace=wrap;html=1;fontSize=16;fillColor=#f5f5f5;strokeColor=#666666;rounded=1;shadow=1;strokeWidth=1;arcSize=50;" vertex="1" parent="1">
          <mxGeometry x="1920" y="515" width="120" height="60" as="geometry" />
        </mxCell>
        <mxCell id="cXpkJefbk4sWb7GXNzCY-272" value="" style="edgeStyle=orthogonalEdgeStyle;rounded=0;orthogonalLoop=1;jettySize=auto;html=1;" edge="1" parent="1" source="cXpkJefbk4sWb7GXNzCY-41" target="cXpkJefbk4sWb7GXNzCY-45">
          <mxGeometry relative="1" as="geometry" />
        </mxCell>
        <mxCell id="cXpkJefbk4sWb7GXNzCY-41" value="Đóng/đợi 15s" style="whiteSpace=wrap;html=1;fontSize=16;fillColor=#f5f5f5;strokeColor=#666666;rounded=1;shadow=1;strokeWidth=1;arcSize=50;" vertex="1" parent="1">
          <mxGeometry x="1680" y="520" width="120" height="60" as="geometry" />
        </mxCell>
        <mxCell id="cXpkJefbk4sWb7GXNzCY-357" value="" style="edgeStyle=orthogonalEdgeStyle;rounded=0;orthogonalLoop=1;jettySize=auto;html=1;" edge="1" parent="1" source="cXpkJefbk4sWb7GXNzCY-45" target="cXpkJefbk4sWb7GXNzCY-355">
          <mxGeometry relative="1" as="geometry" />
        </mxCell>
        <mxCell id="cXpkJefbk4sWb7GXNzCY-45" value="Đóng bar, play kênh" style="whiteSpace=wrap;html=1;rounded=1;shadow=1;strokeWidth=1;fontSize=16;align=center;fillColor=#f5f5f5;strokeColor=#666666;" vertex="1" parent="1">
          <mxGeometry x="1640" y="640" width="200" height="40" as="geometry" />
        </mxCell>
        <mxCell id="cXpkJefbk4sWb7GXNzCY-289" style="edgeStyle=orthogonalEdgeStyle;rounded=0;orthogonalLoop=1;jettySize=auto;html=1;exitX=0.75;exitY=1;exitDx=0;exitDy=0;entryX=0.5;entryY=0;entryDx=0;entryDy=0;" edge="1" parent="1" source="cXpkJefbk4sWb7GXNzCY-46" target="cXpkJefbk4sWb7GXNzCY-287">
          <mxGeometry relative="1" as="geometry" />
        </mxCell>
        <mxCell id="cXpkJefbk4sWb7GXNzCY-290" style="edgeStyle=orthogonalEdgeStyle;rounded=0;orthogonalLoop=1;jettySize=auto;html=1;exitX=0.25;exitY=1;exitDx=0;exitDy=0;entryX=0.5;entryY=0;entryDx=0;entryDy=0;" edge="1" parent="1" source="cXpkJefbk4sWb7GXNzCY-46" target="cXpkJefbk4sWb7GXNzCY-284">
          <mxGeometry relative="1" as="geometry" />
        </mxCell>
        <mxCell id="cXpkJefbk4sWb7GXNzCY-46" value="Focus Thông số" style="whiteSpace=wrap;html=1;rounded=1;shadow=1;strokeWidth=1;fontSize=16;align=center;fillColor=#f5f5f5;strokeColor=#666666;" vertex="1" parent="1">
          <mxGeometry x="2120" y="880" width="200" height="40" as="geometry" />
        </mxCell>
        <mxCell id="cXpkJefbk4sWb7GXNzCY-55" value="" style="edgeStyle=orthogonalEdgeStyle;rounded=0;orthogonalLoop=1;jettySize=auto;html=1;" edge="1" parent="1" source="cXpkJefbk4sWb7GXNzCY-48" target="cXpkJefbk4sWb7GXNzCY-50">
          <mxGeometry relative="1" as="geometry" />
        </mxCell>
        <mxCell id="cXpkJefbk4sWb7GXNzCY-48" value="Playerback" style="whiteSpace=wrap;html=1;fontSize=16;fillColor=#f5f5f5;strokeColor=#666666;rounded=1;shadow=1;strokeWidth=1;arcSize=50;" vertex="1" parent="1">
          <mxGeometry x="2420" y="630" width="120" height="60" as="geometry" />
        </mxCell>
        <mxCell id="cXpkJefbk4sWb7GXNzCY-50" value="Tắt datafeed" style="whiteSpace=wrap;html=1;rounded=1;shadow=1;strokeWidth=1;fontSize=16;align=center;fillColor=#f5f5f5;strokeColor=#666666;" vertex="1" parent="1">
          <mxGeometry x="2620" y="640" width="200" height="40" as="geometry" />
        </mxCell>
        <mxCell id="cXpkJefbk4sWb7GXNzCY-281" value="" style="edgeStyle=orthogonalEdgeStyle;rounded=0;orthogonalLoop=1;jettySize=auto;html=1;" edge="1" parent="1" source="cXpkJefbk4sWb7GXNzCY-52" target="cXpkJefbk4sWb7GXNzCY-46">
          <mxGeometry relative="1" as="geometry" />
        </mxCell>
        <mxCell id="cXpkJefbk4sWb7GXNzCY-282" style="edgeStyle=orthogonalEdgeStyle;rounded=0;orthogonalLoop=1;jettySize=auto;html=1;exitX=1;exitY=0.75;exitDx=0;exitDy=0;entryX=0.5;entryY=0;entryDx=0;entryDy=0;" edge="1" parent="1" source="cXpkJefbk4sWb7GXNzCY-52" target="cXpkJefbk4sWb7GXNzCY-70">
          <mxGeometry relative="1" as="geometry" />
        </mxCell>
        <mxCell id="cXpkJefbk4sWb7GXNzCY-336" style="edgeStyle=orthogonalEdgeStyle;rounded=0;orthogonalLoop=1;jettySize=auto;html=1;exitX=0.25;exitY=1;exitDx=0;exitDy=0;entryX=0.5;entryY=0;entryDx=0;entryDy=0;" edge="1" parent="1" source="cXpkJefbk4sWb7GXNzCY-52" target="cXpkJefbk4sWb7GXNzCY-311">
          <mxGeometry relative="1" as="geometry" />
        </mxCell>
        <mxCell id="cXpkJefbk4sWb7GXNzCY-337" style="edgeStyle=orthogonalEdgeStyle;rounded=0;orthogonalLoop=1;jettySize=auto;html=1;exitX=0;exitY=0.75;exitDx=0;exitDy=0;entryX=0.5;entryY=0;entryDx=0;entryDy=0;" edge="1" parent="1" source="cXpkJefbk4sWb7GXNzCY-52" target="cXpkJefbk4sWb7GXNzCY-320">
          <mxGeometry relative="1" as="geometry" />
        </mxCell>
        <mxCell id="cXpkJefbk4sWb7GXNzCY-52" value="Tiếp tục phát khi mở datafeed" style="whiteSpace=wrap;html=1;rounded=1;shadow=1;strokeWidth=1;fontSize=16;align=center;fillColor=#f5f5f5;strokeColor=#666666;" vertex="1" parent="1">
          <mxGeometry x="2120" y="760" width="200" height="40" as="geometry" />
        </mxCell>
        <mxCell id="cXpkJefbk4sWb7GXNzCY-59" value="" style="edgeStyle=orthogonalEdgeStyle;rounded=0;orthogonalLoop=1;jettySize=auto;html=1;" edge="1" parent="1" source="cXpkJefbk4sWb7GXNzCY-56" target="cXpkJefbk4sWb7GXNzCY-58">
          <mxGeometry relative="1" as="geometry" />
        </mxCell>
        <mxCell id="cXpkJefbk4sWb7GXNzCY-56" value="Tap/Button X" style="whiteSpace=wrap;html=1;fontSize=16;fillColor=#f5f5f5;strokeColor=#666666;rounded=1;shadow=1;strokeWidth=1;arcSize=50;" vertex="1" parent="1">
          <mxGeometry x="2000" y="1360" width="120" height="60" as="geometry" />
        </mxCell>
        <mxCell id="cXpkJefbk4sWb7GXNzCY-58" value="Tắt datafeed" style="whiteSpace=wrap;html=1;rounded=1;shadow=1;strokeWidth=1;fontSize=16;align=center;fillColor=#f5f5f5;strokeColor=#666666;" vertex="1" parent="1">
          <mxGeometry x="1960" y="1479" width="200" height="40" as="geometry" />
        </mxCell>
        <mxCell id="cXpkJefbk4sWb7GXNzCY-62" value="" style="edgeStyle=orthogonalEdgeStyle;rounded=0;orthogonalLoop=1;jettySize=auto;html=1;" edge="1" parent="1" source="cXpkJefbk4sWb7GXNzCY-60" target="cXpkJefbk4sWb7GXNzCY-61">
          <mxGeometry relative="1" as="geometry" />
        </mxCell>
        <mxCell id="cXpkJefbk4sWb7GXNzCY-60" value="Tỷ lệ kiểm soát bóng" style="whiteSpace=wrap;html=1;rounded=1;shadow=1;strokeWidth=1;fontSize=16;align=center;fillColor=#f5f5f5;strokeColor=#666666;" vertex="1" parent="1">
          <mxGeometry x="2220" y="-940" width="125" height="41" as="geometry" />
        </mxCell>
        <mxCell id="cXpkJefbk4sWb7GXNzCY-61" value="Hiện %" style="whiteSpace=wrap;html=1;fontSize=16;fillColor=#00CCCC;strokeColor=#666666;rounded=1;shadow=1;strokeWidth=1;" vertex="1" parent="1">
          <mxGeometry x="2420" y="-949.5" width="120" height="60" as="geometry" />
        </mxCell>
        <mxCell id="cXpkJefbk4sWb7GXNzCY-68" style="edgeStyle=orthogonalEdgeStyle;rounded=0;orthogonalLoop=1;jettySize=auto;html=1;exitX=1;exitY=0.25;exitDx=0;exitDy=0;" edge="1" parent="1" source="cXpkJefbk4sWb7GXNzCY-64" target="cXpkJefbk4sWb7GXNzCY-65">
          <mxGeometry relative="1" as="geometry" />
        </mxCell>
        <mxCell id="cXpkJefbk4sWb7GXNzCY-69" style="edgeStyle=orthogonalEdgeStyle;rounded=0;orthogonalLoop=1;jettySize=auto;html=1;exitX=1;exitY=0.75;exitDx=0;exitDy=0;" edge="1" parent="1" source="cXpkJefbk4sWb7GXNzCY-64" target="cXpkJefbk4sWb7GXNzCY-67">
          <mxGeometry relative="1" as="geometry" />
        </mxCell>
        <mxCell id="cXpkJefbk4sWb7GXNzCY-64" value="Thanh dữ liệu" style="whiteSpace=wrap;html=1;rounded=1;shadow=1;strokeWidth=1;fontSize=16;align=center;fillColor=#f5f5f5;strokeColor=#666666;" vertex="1" parent="1">
          <mxGeometry x="2220" y="-1090" width="125" height="41" as="geometry" />
        </mxCell>
        <mxCell id="cXpkJefbk4sWb7GXNzCY-65" value="Khách bên phải" style="whiteSpace=wrap;html=1;fontSize=16;fillColor=#00CCCC;strokeColor=#666666;rounded=1;shadow=1;strokeWidth=1;" vertex="1" parent="1">
          <mxGeometry x="2420" y="-1140" width="120" height="60" as="geometry" />
        </mxCell>
        <mxCell id="cXpkJefbk4sWb7GXNzCY-67" value="Nhà bên trái" style="whiteSpace=wrap;html=1;fontSize=16;fillColor=#00CCCC;strokeColor=#666666;rounded=1;shadow=1;strokeWidth=1;" vertex="1" parent="1">
          <mxGeometry x="2420" y="-1059" width="120" height="60" as="geometry" />
        </mxCell>
        <mxCell id="cXpkJefbk4sWb7GXNzCY-241" style="edgeStyle=orthogonalEdgeStyle;rounded=0;orthogonalLoop=1;jettySize=auto;html=1;exitX=0;exitY=1;exitDx=0;exitDy=0;entryX=0.5;entryY=0;entryDx=0;entryDy=0;" edge="1" parent="1" source="cXpkJefbk4sWb7GXNzCY-70" target="cXpkJefbk4sWb7GXNzCY-236">
          <mxGeometry relative="1" as="geometry">
            <Array as="points">
              <mxPoint x="2750" y="895" />
              <mxPoint x="2750" y="945" />
              <mxPoint x="2580" y="945" />
            </Array>
          </mxGeometry>
        </mxCell>
        <mxCell id="cXpkJefbk4sWb7GXNzCY-242" style="edgeStyle=orthogonalEdgeStyle;rounded=0;orthogonalLoop=1;jettySize=auto;html=1;exitX=0.25;exitY=1;exitDx=0;exitDy=0;entryX=0.5;entryY=0;entryDx=0;entryDy=0;" edge="1" parent="1" source="cXpkJefbk4sWb7GXNzCY-70" target="cXpkJefbk4sWb7GXNzCY-233">
          <mxGeometry relative="1" as="geometry" />
        </mxCell>
        <mxCell id="cXpkJefbk4sWb7GXNzCY-243" style="edgeStyle=orthogonalEdgeStyle;rounded=0;orthogonalLoop=1;jettySize=auto;html=1;exitX=0.75;exitY=1;exitDx=0;exitDy=0;entryX=0.5;entryY=0;entryDx=0;entryDy=0;" edge="1" parent="1" source="cXpkJefbk4sWb7GXNzCY-70" target="cXpkJefbk4sWb7GXNzCY-222">
          <mxGeometry relative="1" as="geometry">
            <Array as="points">
              <mxPoint x="3010" y="945" />
              <mxPoint x="3100" y="945" />
            </Array>
          </mxGeometry>
        </mxCell>
        <mxCell id="cXpkJefbk4sWb7GXNzCY-244" style="edgeStyle=orthogonalEdgeStyle;rounded=0;orthogonalLoop=1;jettySize=auto;html=1;exitX=1;exitY=1;exitDx=0;exitDy=0;entryX=0.5;entryY=0;entryDx=0;entryDy=0;" edge="1" parent="1" source="cXpkJefbk4sWb7GXNzCY-70" target="cXpkJefbk4sWb7GXNzCY-239">
          <mxGeometry relative="1" as="geometry">
            <Array as="points">
              <mxPoint x="3170" y="895" />
              <mxPoint x="3170" y="945" />
              <mxPoint x="3340" y="945" />
            </Array>
          </mxGeometry>
        </mxCell>
        <mxCell id="cXpkJefbk4sWb7GXNzCY-70" value="Diễn biến" style="whiteSpace=wrap;html=1;fontSize=16;fillColor=#f5f5f5;strokeColor=#666666;rounded=1;shadow=1;strokeWidth=1;" vertex="1" parent="1">
          <mxGeometry x="2920" y="835" width="120" height="60" as="geometry" />
        </mxCell>
        <mxCell id="cXpkJefbk4sWb7GXNzCY-114" style="edgeStyle=orthogonalEdgeStyle;rounded=0;orthogonalLoop=1;jettySize=auto;html=1;exitX=0.5;exitY=1;exitDx=0;exitDy=0;entryX=0.5;entryY=0;entryDx=0;entryDy=0;" edge="1" parent="1" source="cXpkJefbk4sWb7GXNzCY-72" target="cXpkJefbk4sWb7GXNzCY-113">
          <mxGeometry relative="1" as="geometry" />
        </mxCell>
        <mxCell id="cXpkJefbk4sWb7GXNzCY-220" style="edgeStyle=orthogonalEdgeStyle;rounded=0;orthogonalLoop=1;jettySize=auto;html=1;exitX=1;exitY=0.75;exitDx=0;exitDy=0;entryX=0;entryY=0.5;entryDx=0;entryDy=0;" edge="1" parent="1" source="cXpkJefbk4sWb7GXNzCY-72" target="cXpkJefbk4sWb7GXNzCY-128">
          <mxGeometry relative="1" as="geometry" />
        </mxCell>
        <mxCell id="cXpkJefbk4sWb7GXNzCY-221" style="edgeStyle=orthogonalEdgeStyle;rounded=0;orthogonalLoop=1;jettySize=auto;html=1;exitX=1;exitY=0.5;exitDx=0;exitDy=0;entryX=0;entryY=0.5;entryDx=0;entryDy=0;" edge="1" parent="1" source="cXpkJefbk4sWb7GXNzCY-72" target="cXpkJefbk4sWb7GXNzCY-187">
          <mxGeometry relative="1" as="geometry" />
        </mxCell>
        <mxCell id="cXpkJefbk4sWb7GXNzCY-72" value="Diễn biến" style="whiteSpace=wrap;html=1;rounded=1;shadow=1;strokeWidth=1;fontSize=16;align=center;fillColor=#f5f5f5;strokeColor=#666666;" vertex="1" parent="1">
          <mxGeometry x="1560" y="-2410" width="200" height="40" as="geometry" />
        </mxCell>
        <mxCell id="cXpkJefbk4sWb7GXNzCY-75" style="edgeStyle=orthogonalEdgeStyle;rounded=0;orthogonalLoop=1;jettySize=auto;html=1;exitX=0;exitY=0.5;exitDx=0;exitDy=0;entryX=1;entryY=0.5;entryDx=0;entryDy=0;" edge="1" parent="1" source="cXpkJefbk4sWb7GXNzCY-77" target="cXpkJefbk4sWb7GXNzCY-82">
          <mxGeometry relative="1" as="geometry" />
        </mxCell>
        <mxCell id="cXpkJefbk4sWb7GXNzCY-94" style="edgeStyle=orthogonalEdgeStyle;rounded=0;orthogonalLoop=1;jettySize=auto;html=1;exitX=0;exitY=0.75;exitDx=0;exitDy=0;entryX=1;entryY=0.5;entryDx=0;entryDy=0;" edge="1" parent="1" source="cXpkJefbk4sWb7GXNzCY-77" target="cXpkJefbk4sWb7GXNzCY-80">
          <mxGeometry relative="1" as="geometry" />
        </mxCell>
        <mxCell id="cXpkJefbk4sWb7GXNzCY-77" value="Focus" style="whiteSpace=wrap;html=1;rounded=1;shadow=1;strokeWidth=1;fontSize=16;align=center;fillColor=#f5f5f5;strokeColor=#666666;" vertex="1" parent="1">
          <mxGeometry x="414.5" y="-615.5" width="125" height="80" as="geometry" />
        </mxCell>
        <mxCell id="cXpkJefbk4sWb7GXNzCY-78" value="" style="edgeStyle=orthogonalEdgeStyle;rounded=0;orthogonalLoop=1;jettySize=auto;html=1;" edge="1" parent="1" source="cXpkJefbk4sWb7GXNzCY-80" target="cXpkJefbk4sWb7GXNzCY-89">
          <mxGeometry relative="1" as="geometry" />
        </mxCell>
        <mxCell id="cXpkJefbk4sWb7GXNzCY-96" value="" style="edgeStyle=orthogonalEdgeStyle;rounded=0;orthogonalLoop=1;jettySize=auto;html=1;" edge="1" parent="1" source="cXpkJefbk4sWb7GXNzCY-80" target="cXpkJefbk4sWb7GXNzCY-90">
          <mxGeometry relative="1" as="geometry" />
        </mxCell>
        <mxCell id="cXpkJefbk4sWb7GXNzCY-80" value="Ko focus" style="whiteSpace=wrap;html=1;rounded=1;shadow=1;strokeWidth=1;fontSize=16;align=center;fillColor=#f5f5f5;strokeColor=#666666;" vertex="1" parent="1">
          <mxGeometry x="244.5" y="-556.5" width="125" height="50" as="geometry" />
        </mxCell>
        <mxCell id="cXpkJefbk4sWb7GXNzCY-81" value="" style="edgeStyle=orthogonalEdgeStyle;rounded=0;orthogonalLoop=1;jettySize=auto;html=1;" edge="1" parent="1" source="cXpkJefbk4sWb7GXNzCY-82" target="cXpkJefbk4sWb7GXNzCY-86">
          <mxGeometry relative="1" as="geometry" />
        </mxCell>
        <mxCell id="cXpkJefbk4sWb7GXNzCY-82" value="Có focus" style="whiteSpace=wrap;html=1;rounded=1;shadow=1;strokeWidth=1;fontSize=16;align=center;fillColor=#f5f5f5;strokeColor=#666666;" vertex="1" parent="1">
          <mxGeometry x="244.5" y="-631.5" width="125" height="50" as="geometry" />
        </mxCell>
        <mxCell id="cXpkJefbk4sWb7GXNzCY-84" style="edgeStyle=orthogonalEdgeStyle;rounded=0;orthogonalLoop=1;jettySize=auto;html=1;exitX=0.5;exitY=1;exitDx=0;exitDy=0;" edge="1" parent="1">
          <mxGeometry relative="1" as="geometry">
            <mxPoint x="-111.0600000000004" y="-465.5" as="sourcePoint" />
            <mxPoint x="-111.0600000000004" y="-465.5" as="targetPoint" />
          </mxGeometry>
        </mxCell>
        <mxCell id="cXpkJefbk4sWb7GXNzCY-85" value="Header" style="whiteSpace=wrap;html=1;rounded=1;shadow=1;strokeWidth=1;fontSize=16;align=center;fillColor=#f5f5f5;strokeColor=#666666;" vertex="1" parent="1">
          <mxGeometry x="414.5" y="-750.5" width="125" height="80" as="geometry" />
        </mxCell>
        <mxCell id="cXpkJefbk4sWb7GXNzCY-86" value="Icon đen nền trắng" style="whiteSpace=wrap;html=1;fontSize=16;fillColor=#00CCCC;strokeColor=#666666;rounded=1;shadow=1;strokeWidth=1;" vertex="1" parent="1">
          <mxGeometry x="44.5" y="-636.5" width="120" height="60" as="geometry" />
        </mxCell>
        <mxCell id="cXpkJefbk4sWb7GXNzCY-87" value="" style="edgeStyle=orthogonalEdgeStyle;rounded=0;orthogonalLoop=1;jettySize=auto;html=1;" edge="1" parent="1" source="cXpkJefbk4sWb7GXNzCY-89" target="cXpkJefbk4sWb7GXNzCY-91">
          <mxGeometry relative="1" as="geometry" />
        </mxCell>
        <mxCell id="cXpkJefbk4sWb7GXNzCY-88" style="edgeStyle=orthogonalEdgeStyle;rounded=0;orthogonalLoop=1;jettySize=auto;html=1;exitX=0;exitY=0.75;exitDx=0;exitDy=0;entryX=1;entryY=0.5;entryDx=0;entryDy=0;" edge="1" parent="1" source="cXpkJefbk4sWb7GXNzCY-89" target="cXpkJefbk4sWb7GXNzCY-92">
          <mxGeometry relative="1" as="geometry" />
        </mxCell>
        <mxCell id="cXpkJefbk4sWb7GXNzCY-89" value="Active" style="whiteSpace=wrap;html=1;fontSize=16;fillColor=#f5f5f5;strokeColor=#666666;rounded=1;shadow=1;strokeWidth=1;" vertex="1" parent="1">
          <mxGeometry x="44.5" y="-561.5" width="120" height="60" as="geometry" />
        </mxCell>
        <mxCell id="cXpkJefbk4sWb7GXNzCY-90" value="Icon trắng nền đen" style="whiteSpace=wrap;html=1;fontSize=16;fillColor=#00CCCC;strokeColor=#666666;rounded=1;shadow=1;strokeWidth=1;" vertex="1" parent="1">
          <mxGeometry x="247" y="-436.5" width="120" height="60" as="geometry" />
        </mxCell>
        <mxCell id="cXpkJefbk4sWb7GXNzCY-91" value="Icon trắng nền xám" style="whiteSpace=wrap;html=1;fontSize=16;fillColor=#00CCCC;strokeColor=#666666;rounded=1;shadow=1;strokeWidth=1;" vertex="1" parent="1">
          <mxGeometry x="-155.49999999999994" y="-596.5" width="120" height="60" as="geometry" />
        </mxCell>
        <mxCell id="cXpkJefbk4sWb7GXNzCY-92" value="ND viền trắng" style="whiteSpace=wrap;html=1;fontSize=16;fillColor=#00CCCC;strokeColor=#666666;rounded=1;shadow=1;strokeWidth=1;" vertex="1" parent="1">
          <mxGeometry x="-155.49999999999994" y="-496.5" width="120" height="60" as="geometry" />
        </mxCell>
        <mxCell id="cXpkJefbk4sWb7GXNzCY-181" style="edgeStyle=orthogonalEdgeStyle;rounded=0;orthogonalLoop=1;jettySize=auto;html=1;exitX=1;exitY=1;exitDx=0;exitDy=0;entryX=0;entryY=0.5;entryDx=0;entryDy=0;" edge="1" parent="1" source="cXpkJefbk4sWb7GXNzCY-113" target="kgQNQLbI_HPiewj2uFAK-123">
          <mxGeometry relative="1" as="geometry" />
        </mxCell>
        <mxCell id="cXpkJefbk4sWb7GXNzCY-182" style="edgeStyle=orthogonalEdgeStyle;rounded=0;orthogonalLoop=1;jettySize=auto;html=1;exitX=1;exitY=0.75;exitDx=0;exitDy=0;entryX=0;entryY=0.5;entryDx=0;entryDy=0;" edge="1" parent="1" source="cXpkJefbk4sWb7GXNzCY-113" target="kgQNQLbI_HPiewj2uFAK-110">
          <mxGeometry relative="1" as="geometry" />
        </mxCell>
        <mxCell id="cXpkJefbk4sWb7GXNzCY-183" style="edgeStyle=orthogonalEdgeStyle;rounded=0;orthogonalLoop=1;jettySize=auto;html=1;exitX=1;exitY=0.5;exitDx=0;exitDy=0;entryX=0;entryY=0.5;entryDx=0;entryDy=0;" edge="1" parent="1" source="cXpkJefbk4sWb7GXNzCY-113" target="kgQNQLbI_HPiewj2uFAK-126">
          <mxGeometry relative="1" as="geometry" />
        </mxCell>
        <mxCell id="cXpkJefbk4sWb7GXNzCY-184" style="edgeStyle=orthogonalEdgeStyle;rounded=0;orthogonalLoop=1;jettySize=auto;html=1;exitX=1;exitY=0.25;exitDx=0;exitDy=0;entryX=0;entryY=0.5;entryDx=0;entryDy=0;" edge="1" parent="1" source="cXpkJefbk4sWb7GXNzCY-113" target="kgQNQLbI_HPiewj2uFAK-127">
          <mxGeometry relative="1" as="geometry" />
        </mxCell>
        <mxCell id="cXpkJefbk4sWb7GXNzCY-185" style="edgeStyle=orthogonalEdgeStyle;rounded=0;orthogonalLoop=1;jettySize=auto;html=1;exitX=1;exitY=0;exitDx=0;exitDy=0;entryX=0;entryY=0.5;entryDx=0;entryDy=0;" edge="1" parent="1" source="cXpkJefbk4sWb7GXNzCY-113" target="kgQNQLbI_HPiewj2uFAK-128">
          <mxGeometry relative="1" as="geometry" />
        </mxCell>
        <mxCell id="cXpkJefbk4sWb7GXNzCY-347" style="edgeStyle=orthogonalEdgeStyle;rounded=0;orthogonalLoop=1;jettySize=auto;html=1;exitX=1;exitY=0;exitDx=0;exitDy=0;entryX=0;entryY=0.5;entryDx=0;entryDy=0;" edge="1" parent="1" source="cXpkJefbk4sWb7GXNzCY-113" target="kgQNQLbI_HPiewj2uFAK-113">
          <mxGeometry relative="1" as="geometry" />
        </mxCell>
        <mxCell id="cXpkJefbk4sWb7GXNzCY-113" value="Chung (realtime)" style="whiteSpace=wrap;html=1;rounded=1;shadow=1;strokeWidth=1;fontSize=16;align=center;fillColor=#f5f5f5;strokeColor=#666666;" vertex="1" parent="1">
          <mxGeometry x="1560" y="-1490" width="200" height="40" as="geometry" />
        </mxCell>
        <mxCell id="cXpkJefbk4sWb7GXNzCY-126" style="edgeStyle=orthogonalEdgeStyle;rounded=0;orthogonalLoop=1;jettySize=auto;html=1;exitX=1;exitY=0.25;exitDx=0;exitDy=0;entryX=0;entryY=0.5;entryDx=0;entryDy=0;" edge="1" parent="1" source="cXpkJefbk4sWb7GXNzCY-128" target="cXpkJefbk4sWb7GXNzCY-133">
          <mxGeometry relative="1" as="geometry" />
        </mxCell>
        <mxCell id="cXpkJefbk4sWb7GXNzCY-127" style="edgeStyle=orthogonalEdgeStyle;rounded=0;orthogonalLoop=1;jettySize=auto;html=1;exitX=1;exitY=0.75;exitDx=0;exitDy=0;entryX=0;entryY=0.5;entryDx=0;entryDy=0;" edge="1" parent="1" source="cXpkJefbk4sWb7GXNzCY-128" target="cXpkJefbk4sWb7GXNzCY-131">
          <mxGeometry relative="1" as="geometry" />
        </mxCell>
        <mxCell id="cXpkJefbk4sWb7GXNzCY-128" value="Focus" style="whiteSpace=wrap;html=1;rounded=1;shadow=1;strokeWidth=1;fontSize=16;align=center;fillColor=#f5f5f5;strokeColor=#666666;" vertex="1" parent="1">
          <mxGeometry x="2001" y="-2290" width="125" height="80" as="geometry" />
        </mxCell>
        <mxCell id="cXpkJefbk4sWb7GXNzCY-129" value="" style="edgeStyle=orthogonalEdgeStyle;rounded=0;orthogonalLoop=1;jettySize=auto;html=1;" edge="1" parent="1" source="cXpkJefbk4sWb7GXNzCY-131" target="cXpkJefbk4sWb7GXNzCY-139">
          <mxGeometry relative="1" as="geometry" />
        </mxCell>
        <mxCell id="cXpkJefbk4sWb7GXNzCY-130" value="" style="edgeStyle=orthogonalEdgeStyle;rounded=0;orthogonalLoop=1;jettySize=auto;html=1;" edge="1" parent="1" source="cXpkJefbk4sWb7GXNzCY-131" target="cXpkJefbk4sWb7GXNzCY-140">
          <mxGeometry relative="1" as="geometry" />
        </mxCell>
        <mxCell id="cXpkJefbk4sWb7GXNzCY-131" value="Ko focus" style="whiteSpace=wrap;html=1;rounded=1;shadow=1;strokeWidth=1;fontSize=16;align=center;fillColor=#f5f5f5;strokeColor=#666666;" vertex="1" parent="1">
          <mxGeometry x="2221" y="-2235" width="125" height="50" as="geometry" />
        </mxCell>
        <mxCell id="cXpkJefbk4sWb7GXNzCY-132" value="" style="edgeStyle=orthogonalEdgeStyle;rounded=0;orthogonalLoop=1;jettySize=auto;html=1;" edge="1" parent="1" source="cXpkJefbk4sWb7GXNzCY-133" target="cXpkJefbk4sWb7GXNzCY-136">
          <mxGeometry relative="1" as="geometry" />
        </mxCell>
        <mxCell id="cXpkJefbk4sWb7GXNzCY-133" value="Có focus" style="whiteSpace=wrap;html=1;rounded=1;shadow=1;strokeWidth=1;fontSize=16;align=center;fillColor=#f5f5f5;strokeColor=#666666;" vertex="1" parent="1">
          <mxGeometry x="2221" y="-2331" width="125" height="50" as="geometry" />
        </mxCell>
        <mxCell id="cXpkJefbk4sWb7GXNzCY-135" style="edgeStyle=orthogonalEdgeStyle;rounded=0;orthogonalLoop=1;jettySize=auto;html=1;exitX=0.5;exitY=1;exitDx=0;exitDy=0;" edge="1" parent="1">
          <mxGeometry relative="1" as="geometry">
            <mxPoint x="2283.5" y="-2370" as="sourcePoint" />
            <mxPoint x="2283.5" y="-2370" as="targetPoint" />
          </mxGeometry>
        </mxCell>
        <mxCell id="cXpkJefbk4sWb7GXNzCY-136" value="Icon đen nền trắng" style="whiteSpace=wrap;html=1;fontSize=16;fillColor=#00CCCC;strokeColor=#666666;rounded=1;shadow=1;strokeWidth=1;" vertex="1" parent="1">
          <mxGeometry x="2428.5" y="-2336" width="120" height="60" as="geometry" />
        </mxCell>
        <mxCell id="cXpkJefbk4sWb7GXNzCY-137" value="" style="edgeStyle=orthogonalEdgeStyle;rounded=0;orthogonalLoop=1;jettySize=auto;html=1;" edge="1" parent="1" source="cXpkJefbk4sWb7GXNzCY-139" target="cXpkJefbk4sWb7GXNzCY-141">
          <mxGeometry relative="1" as="geometry" />
        </mxCell>
        <mxCell id="cXpkJefbk4sWb7GXNzCY-138" style="edgeStyle=orthogonalEdgeStyle;rounded=0;orthogonalLoop=1;jettySize=auto;html=1;exitX=1;exitY=0.75;exitDx=0;exitDy=0;entryX=0;entryY=0.5;entryDx=0;entryDy=0;" edge="1" parent="1" source="cXpkJefbk4sWb7GXNzCY-139" target="cXpkJefbk4sWb7GXNzCY-142">
          <mxGeometry relative="1" as="geometry" />
        </mxCell>
        <mxCell id="cXpkJefbk4sWb7GXNzCY-139" value="Active" style="whiteSpace=wrap;html=1;fontSize=16;fillColor=#f5f5f5;strokeColor=#666666;rounded=1;shadow=1;strokeWidth=1;" vertex="1" parent="1">
          <mxGeometry x="2428.5" y="-2240" width="120" height="60" as="geometry" />
        </mxCell>
        <mxCell id="cXpkJefbk4sWb7GXNzCY-140" value="Icon trắng nền đen" style="whiteSpace=wrap;html=1;fontSize=16;fillColor=#00CCCC;strokeColor=#666666;rounded=1;shadow=1;strokeWidth=1;" vertex="1" parent="1">
          <mxGeometry x="2223.5" y="-2110" width="120" height="60" as="geometry" />
        </mxCell>
        <mxCell id="cXpkJefbk4sWb7GXNzCY-141" value="Icon trắng nền xám" style="whiteSpace=wrap;html=1;fontSize=16;fillColor=#00CCCC;strokeColor=#666666;rounded=1;shadow=1;strokeWidth=1;" vertex="1" parent="1">
          <mxGeometry x="2628.5" y="-2240" width="120" height="60" as="geometry" />
        </mxCell>
        <mxCell id="cXpkJefbk4sWb7GXNzCY-142" value="ND viền trắng" style="whiteSpace=wrap;html=1;fontSize=16;fillColor=#00CCCC;strokeColor=#666666;rounded=1;shadow=1;strokeWidth=1;" vertex="1" parent="1">
          <mxGeometry x="2628.5" y="-2160" width="120" height="60" as="geometry" />
        </mxCell>
        <mxCell id="cXpkJefbk4sWb7GXNzCY-205" style="edgeStyle=orthogonalEdgeStyle;rounded=0;orthogonalLoop=1;jettySize=auto;html=1;exitX=1;exitY=0.75;exitDx=0;exitDy=0;entryX=0;entryY=0.5;entryDx=0;entryDy=0;" edge="1" parent="1" source="cXpkJefbk4sWb7GXNzCY-187" target="cXpkJefbk4sWb7GXNzCY-198">
          <mxGeometry relative="1" as="geometry" />
        </mxCell>
        <mxCell id="cXpkJefbk4sWb7GXNzCY-206" style="edgeStyle=orthogonalEdgeStyle;rounded=0;orthogonalLoop=1;jettySize=auto;html=1;exitX=1;exitY=1;exitDx=0;exitDy=0;entryX=0;entryY=0.5;entryDx=0;entryDy=0;" edge="1" parent="1" source="cXpkJefbk4sWb7GXNzCY-187" target="cXpkJefbk4sWb7GXNzCY-188">
          <mxGeometry relative="1" as="geometry" />
        </mxCell>
        <mxCell id="cXpkJefbk4sWb7GXNzCY-217" style="edgeStyle=orthogonalEdgeStyle;rounded=0;orthogonalLoop=1;jettySize=auto;html=1;exitX=1;exitY=0.5;exitDx=0;exitDy=0;entryX=0;entryY=0.5;entryDx=0;entryDy=0;" edge="1" parent="1" source="cXpkJefbk4sWb7GXNzCY-187" target="cXpkJefbk4sWb7GXNzCY-210">
          <mxGeometry relative="1" as="geometry" />
        </mxCell>
        <mxCell id="cXpkJefbk4sWb7GXNzCY-218" style="edgeStyle=orthogonalEdgeStyle;rounded=0;orthogonalLoop=1;jettySize=auto;html=1;exitX=1;exitY=0.25;exitDx=0;exitDy=0;entryX=0;entryY=0.5;entryDx=0;entryDy=0;" edge="1" parent="1" source="cXpkJefbk4sWb7GXNzCY-187" target="cXpkJefbk4sWb7GXNzCY-211">
          <mxGeometry relative="1" as="geometry">
            <Array as="points">
              <mxPoint x="2160" y="-2750" />
              <mxPoint x="2160" y="-2880" />
            </Array>
          </mxGeometry>
        </mxCell>
        <mxCell id="cXpkJefbk4sWb7GXNzCY-219" style="edgeStyle=orthogonalEdgeStyle;rounded=0;orthogonalLoop=1;jettySize=auto;html=1;exitX=1;exitY=0;exitDx=0;exitDy=0;entryX=0;entryY=0.5;entryDx=0;entryDy=0;" edge="1" parent="1" source="cXpkJefbk4sWb7GXNzCY-187" target="cXpkJefbk4sWb7GXNzCY-216">
          <mxGeometry relative="1" as="geometry" />
        </mxCell>
        <mxCell id="cXpkJefbk4sWb7GXNzCY-187" value="Diễn biến trận đấu" style="whiteSpace=wrap;html=1;rounded=1;shadow=1;strokeWidth=1;fontSize=16;align=center;fillColor=#f5f5f5;strokeColor=#666666;" vertex="1" parent="1">
          <mxGeometry x="2001" y="-2770" width="125" height="80" as="geometry" />
        </mxCell>
        <mxCell id="cXpkJefbk4sWb7GXNzCY-207" value="" style="edgeStyle=orthogonalEdgeStyle;rounded=0;orthogonalLoop=1;jettySize=auto;html=1;" edge="1" parent="1" source="cXpkJefbk4sWb7GXNzCY-188" target="cXpkJefbk4sWb7GXNzCY-195">
          <mxGeometry relative="1" as="geometry" />
        </mxCell>
        <mxCell id="cXpkJefbk4sWb7GXNzCY-188" value="Label trạng thái hiệp đấu" style="whiteSpace=wrap;html=1;rounded=1;shadow=1;strokeWidth=1;fontSize=16;align=center;fillColor=#f5f5f5;strokeColor=#666666;" vertex="1" parent="1">
          <mxGeometry x="2222" y="-2470" width="125" height="50" as="geometry" />
        </mxCell>
        <mxCell id="cXpkJefbk4sWb7GXNzCY-195" value="5 Label" style="whiteSpace=wrap;html=1;fontSize=16;fillColor=#00CCCC;strokeColor=#666666;rounded=1;shadow=1;strokeWidth=1;" vertex="1" parent="1">
          <mxGeometry x="2429.5" y="-2475" width="120" height="60" as="geometry" />
        </mxCell>
        <mxCell id="cXpkJefbk4sWb7GXNzCY-197" style="edgeStyle=orthogonalEdgeStyle;rounded=0;orthogonalLoop=1;jettySize=auto;html=1;exitX=1;exitY=0.256;exitDx=0;exitDy=0;entryX=0;entryY=0.5;entryDx=0;entryDy=0;exitPerimeter=0;" edge="1" parent="1" source="cXpkJefbk4sWb7GXNzCY-198" target="cXpkJefbk4sWb7GXNzCY-201">
          <mxGeometry relative="1" as="geometry">
            <mxPoint x="2423.5" y="-2610" as="targetPoint" />
          </mxGeometry>
        </mxCell>
        <mxCell id="cXpkJefbk4sWb7GXNzCY-203" style="edgeStyle=orthogonalEdgeStyle;rounded=0;orthogonalLoop=1;jettySize=auto;html=1;exitX=1;exitY=0.75;exitDx=0;exitDy=0;entryX=0;entryY=0.5;entryDx=0;entryDy=0;" edge="1" parent="1" source="cXpkJefbk4sWb7GXNzCY-198" target="cXpkJefbk4sWb7GXNzCY-202">
          <mxGeometry relative="1" as="geometry" />
        </mxCell>
        <mxCell id="cXpkJefbk4sWb7GXNzCY-225" style="edgeStyle=orthogonalEdgeStyle;rounded=0;orthogonalLoop=1;jettySize=auto;html=1;exitX=1;exitY=0.5;exitDx=0;exitDy=0;" edge="1" parent="1" source="cXpkJefbk4sWb7GXNzCY-198" target="cXpkJefbk4sWb7GXNzCY-224">
          <mxGeometry relative="1" as="geometry" />
        </mxCell>
        <mxCell id="cXpkJefbk4sWb7GXNzCY-198" value="9 thông số" style="whiteSpace=wrap;html=1;rounded=1;shadow=1;strokeWidth=1;fontSize=16;align=center;fillColor=#f5f5f5;strokeColor=#666666;" vertex="1" parent="1">
          <mxGeometry x="2222" y="-2630.5" width="125" height="41" as="geometry" />
        </mxCell>
        <mxCell id="cXpkJefbk4sWb7GXNzCY-201" value="Không hiện thông số không có dữ liệu" style="whiteSpace=wrap;html=1;fontSize=16;fillColor=#00CCCC;strokeColor=#666666;rounded=1;shadow=1;strokeWidth=1;" vertex="1" parent="1">
          <mxGeometry x="2429.5" y="-2720" width="120" height="60" as="geometry" />
        </mxCell>
        <mxCell id="cXpkJefbk4sWb7GXNzCY-202" value="Scroll để xem thêm" style="whiteSpace=wrap;html=1;fontSize=16;fillColor=#00CCCC;strokeColor=#666666;rounded=1;shadow=1;strokeWidth=1;" vertex="1" parent="1">
          <mxGeometry x="2428.5" y="-2560" width="120" height="60" as="geometry" />
        </mxCell>
        <mxCell id="cXpkJefbk4sWb7GXNzCY-359" style="edgeStyle=orthogonalEdgeStyle;rounded=0;orthogonalLoop=1;jettySize=auto;html=1;exitX=0.5;exitY=1;exitDx=0;exitDy=0;entryX=0.5;entryY=0;entryDx=0;entryDy=0;" edge="1" parent="1" source="cXpkJefbk4sWb7GXNzCY-208" target="cXpkJefbk4sWb7GXNzCY-351">
          <mxGeometry relative="1" as="geometry" />
        </mxCell>
        <mxCell id="cXpkJefbk4sWb7GXNzCY-360" style="edgeStyle=orthogonalEdgeStyle;rounded=0;orthogonalLoop=1;jettySize=auto;html=1;exitX=0.75;exitY=1;exitDx=0;exitDy=0;entryX=0;entryY=0.5;entryDx=0;entryDy=0;" edge="1" parent="1" source="cXpkJefbk4sWb7GXNzCY-208" target="cXpkJefbk4sWb7GXNzCY-349">
          <mxGeometry relative="1" as="geometry" />
        </mxCell>
        <mxCell id="cXpkJefbk4sWb7GXNzCY-208" value="Player" style="whiteSpace=wrap;html=1;rounded=1;shadow=1;strokeWidth=1;fontSize=16;align=center;fillColor=#f5f5f5;strokeColor=#666666;" vertex="1" parent="1">
          <mxGeometry x="1880" y="110" width="200" height="40" as="geometry" />
        </mxCell>
        <mxCell id="cXpkJefbk4sWb7GXNzCY-214" value="" style="edgeStyle=orthogonalEdgeStyle;rounded=0;orthogonalLoop=1;jettySize=auto;html=1;" edge="1" parent="1" source="cXpkJefbk4sWb7GXNzCY-210" target="cXpkJefbk4sWb7GXNzCY-213">
          <mxGeometry relative="1" as="geometry" />
        </mxCell>
        <mxCell id="cXpkJefbk4sWb7GXNzCY-210" value="Hiển thị kết quả var" style="whiteSpace=wrap;html=1;rounded=1;shadow=1;strokeWidth=1;fontSize=16;align=center;fillColor=#f5f5f5;strokeColor=#666666;" vertex="1" parent="1">
          <mxGeometry x="2221" y="-2790" width="125" height="41" as="geometry" />
        </mxCell>
        <mxCell id="cXpkJefbk4sWb7GXNzCY-215" value="" style="edgeStyle=orthogonalEdgeStyle;rounded=0;orthogonalLoop=1;jettySize=auto;html=1;" edge="1" parent="1" source="cXpkJefbk4sWb7GXNzCY-211" target="cXpkJefbk4sWb7GXNzCY-212">
          <mxGeometry relative="1" as="geometry" />
        </mxCell>
        <mxCell id="cXpkJefbk4sWb7GXNzCY-211" value="Luân lưu" style="whiteSpace=wrap;html=1;rounded=1;shadow=1;strokeWidth=1;fontSize=16;align=center;fillColor=#f5f5f5;strokeColor=#666666;" vertex="1" parent="1">
          <mxGeometry x="2222" y="-2900" width="125" height="41" as="geometry" />
        </mxCell>
        <mxCell id="cXpkJefbk4sWb7GXNzCY-212" value="Không hiển thị thời gian" style="whiteSpace=wrap;html=1;fontSize=16;fillColor=#00CCCC;strokeColor=#666666;rounded=1;shadow=1;strokeWidth=1;" vertex="1" parent="1">
          <mxGeometry x="2428.5" y="-2909.5" width="120" height="60" as="geometry" />
        </mxCell>
        <mxCell id="cXpkJefbk4sWb7GXNzCY-213" value="11 thông số" style="whiteSpace=wrap;html=1;fontSize=16;fillColor=#00CCCC;strokeColor=#666666;rounded=1;shadow=1;strokeWidth=1;" vertex="1" parent="1">
          <mxGeometry x="2428.5" y="-2799.5" width="120" height="60" as="geometry" />
        </mxCell>
        <mxCell id="cXpkJefbk4sWb7GXNzCY-216" value="Thông tin mới nằm trên" style="whiteSpace=wrap;html=1;fontSize=16;fillColor=#00CCCC;strokeColor=#666666;rounded=1;shadow=1;strokeWidth=1;" vertex="1" parent="1">
          <mxGeometry x="2222.5" y="-3000" width="120" height="60" as="geometry" />
        </mxCell>
        <mxCell id="cXpkJefbk4sWb7GXNzCY-229" value="" style="edgeStyle=orthogonalEdgeStyle;rounded=0;orthogonalLoop=1;jettySize=auto;html=1;" edge="1" parent="1" source="cXpkJefbk4sWb7GXNzCY-222" target="cXpkJefbk4sWb7GXNzCY-226">
          <mxGeometry relative="1" as="geometry" />
        </mxCell>
        <mxCell id="cXpkJefbk4sWb7GXNzCY-222" value="Hover qua Label hiệp" style="whiteSpace=wrap;html=1;fontSize=16;fillColor=#f5f5f5;strokeColor=#666666;rounded=1;shadow=1;strokeWidth=1;arcSize=50;" vertex="1" parent="1">
          <mxGeometry x="3040" y="995" width="120" height="60" as="geometry" />
        </mxCell>
        <mxCell id="cXpkJefbk4sWb7GXNzCY-224" value="Icon" style="whiteSpace=wrap;html=1;fontSize=16;fillColor=#00CCCC;strokeColor=#666666;rounded=1;shadow=1;strokeWidth=1;" vertex="1" parent="1">
          <mxGeometry x="2428.5" y="-2640" width="120" height="60" as="geometry" />
        </mxCell>
        <mxCell id="cXpkJefbk4sWb7GXNzCY-226" value="Hiệp được neo dưới Scoreboard" style="whiteSpace=wrap;html=1;rounded=1;shadow=1;strokeWidth=1;fontSize=16;align=center;fillColor=#f5f5f5;strokeColor=#666666;" vertex="1" parent="1">
          <mxGeometry x="3000" y="1115" width="200" height="40" as="geometry" />
        </mxCell>
        <mxCell id="cXpkJefbk4sWb7GXNzCY-232" value="" style="edgeStyle=orthogonalEdgeStyle;rounded=0;orthogonalLoop=1;jettySize=auto;html=1;" edge="1" parent="1" source="cXpkJefbk4sWb7GXNzCY-233" target="cXpkJefbk4sWb7GXNzCY-234">
          <mxGeometry relative="1" as="geometry" />
        </mxCell>
        <mxCell id="cXpkJefbk4sWb7GXNzCY-233" value="Hover tiếp" style="whiteSpace=wrap;html=1;fontSize=16;fillColor=#f5f5f5;strokeColor=#666666;rounded=1;shadow=1;strokeWidth=1;arcSize=50;" vertex="1" parent="1">
          <mxGeometry x="2760" y="995" width="120" height="60" as="geometry" />
        </mxCell>
        <mxCell id="cXpkJefbk4sWb7GXNzCY-234" value="Điểm scroll ở giữa" style="whiteSpace=wrap;html=1;rounded=1;shadow=1;strokeWidth=1;fontSize=16;align=center;fillColor=#f5f5f5;strokeColor=#666666;" vertex="1" parent="1">
          <mxGeometry x="2720" y="1115" width="200" height="40" as="geometry" />
        </mxCell>
        <mxCell id="cXpkJefbk4sWb7GXNzCY-235" value="" style="edgeStyle=orthogonalEdgeStyle;rounded=0;orthogonalLoop=1;jettySize=auto;html=1;" edge="1" parent="1" source="cXpkJefbk4sWb7GXNzCY-236" target="cXpkJefbk4sWb7GXNzCY-237">
          <mxGeometry relative="1" as="geometry" />
        </mxCell>
        <mxCell id="cXpkJefbk4sWb7GXNzCY-236" value="Bấm hover 2" style="whiteSpace=wrap;html=1;fontSize=16;fillColor=#f5f5f5;strokeColor=#666666;rounded=1;shadow=1;strokeWidth=1;arcSize=50;" vertex="1" parent="1">
          <mxGeometry x="2520" y="995" width="120" height="60" as="geometry" />
        </mxCell>
        <mxCell id="cXpkJefbk4sWb7GXNzCY-237" value="Ẩn DS ghi bàn" style="whiteSpace=wrap;html=1;rounded=1;shadow=1;strokeWidth=1;fontSize=16;align=center;fillColor=#f5f5f5;strokeColor=#666666;" vertex="1" parent="1">
          <mxGeometry x="2480" y="1115" width="200" height="40" as="geometry" />
        </mxCell>
        <mxCell id="cXpkJefbk4sWb7GXNzCY-238" value="" style="edgeStyle=orthogonalEdgeStyle;rounded=0;orthogonalLoop=1;jettySize=auto;html=1;" edge="1" parent="1" source="cXpkJefbk4sWb7GXNzCY-239" target="cXpkJefbk4sWb7GXNzCY-240">
          <mxGeometry relative="1" as="geometry" />
        </mxCell>
        <mxCell id="cXpkJefbk4sWb7GXNzCY-239" value="Hết dữ liệu" style="whiteSpace=wrap;html=1;fontSize=16;fillColor=#f5f5f5;strokeColor=#666666;rounded=1;shadow=1;strokeWidth=1;arcSize=50;" vertex="1" parent="1">
          <mxGeometry x="3280" y="995" width="120" height="60" as="geometry" />
        </mxCell>
        <mxCell id="cXpkJefbk4sWb7GXNzCY-240" value="Hover scroll theo dữ liệu" style="whiteSpace=wrap;html=1;rounded=1;shadow=1;strokeWidth=1;fontSize=16;align=center;fillColor=#f5f5f5;strokeColor=#666666;" vertex="1" parent="1">
          <mxGeometry x="3240" y="1115" width="200" height="40" as="geometry" />
        </mxCell>
        <mxCell id="cXpkJefbk4sWb7GXNzCY-279" value="" style="edgeStyle=orthogonalEdgeStyle;rounded=0;orthogonalLoop=1;jettySize=auto;html=1;" edge="1" parent="1" source="cXpkJefbk4sWb7GXNzCY-273" target="cXpkJefbk4sWb7GXNzCY-48">
          <mxGeometry relative="1" as="geometry" />
        </mxCell>
        <mxCell id="cXpkJefbk4sWb7GXNzCY-280" value="" style="edgeStyle=orthogonalEdgeStyle;rounded=0;orthogonalLoop=1;jettySize=auto;html=1;" edge="1" parent="1" source="cXpkJefbk4sWb7GXNzCY-273" target="cXpkJefbk4sWb7GXNzCY-52">
          <mxGeometry relative="1" as="geometry" />
        </mxCell>
        <mxCell id="cXpkJefbk4sWb7GXNzCY-273" value="Vào Datafeed" style="whiteSpace=wrap;html=1;rounded=1;shadow=1;strokeWidth=1;fontSize=16;align=center;fillColor=#f5f5f5;strokeColor=#666666;" vertex="1" parent="1">
          <mxGeometry x="2120" y="640" width="200" height="40" as="geometry" />
        </mxCell>
        <mxCell id="cXpkJefbk4sWb7GXNzCY-283" value="" style="edgeStyle=orthogonalEdgeStyle;rounded=0;orthogonalLoop=1;jettySize=auto;html=1;" edge="1" parent="1" source="cXpkJefbk4sWb7GXNzCY-284" target="cXpkJefbk4sWb7GXNzCY-285">
          <mxGeometry relative="1" as="geometry" />
        </mxCell>
        <mxCell id="cXpkJefbk4sWb7GXNzCY-284" value="Hover tiếp" style="whiteSpace=wrap;html=1;fontSize=16;fillColor=#f5f5f5;strokeColor=#666666;rounded=1;shadow=1;strokeWidth=1;arcSize=50;" vertex="1" parent="1">
          <mxGeometry x="2040" y="961" width="120" height="60" as="geometry" />
        </mxCell>
        <mxCell id="cXpkJefbk4sWb7GXNzCY-285" value="Điểm scroll ở giữa" style="whiteSpace=wrap;html=1;rounded=1;shadow=1;strokeWidth=1;fontSize=16;align=center;fillColor=#f5f5f5;strokeColor=#666666;" vertex="1" parent="1">
          <mxGeometry x="2000" y="1081" width="200" height="40" as="geometry" />
        </mxCell>
        <mxCell id="cXpkJefbk4sWb7GXNzCY-286" value="" style="edgeStyle=orthogonalEdgeStyle;rounded=0;orthogonalLoop=1;jettySize=auto;html=1;" edge="1" parent="1" source="cXpkJefbk4sWb7GXNzCY-287" target="cXpkJefbk4sWb7GXNzCY-288">
          <mxGeometry relative="1" as="geometry" />
        </mxCell>
        <mxCell id="cXpkJefbk4sWb7GXNzCY-287" value="Hết dữ liệu" style="whiteSpace=wrap;html=1;fontSize=16;fillColor=#f5f5f5;strokeColor=#666666;rounded=1;shadow=1;strokeWidth=1;arcSize=50;" vertex="1" parent="1">
          <mxGeometry x="2280" y="961" width="120" height="60" as="geometry" />
        </mxCell>
        <mxCell id="cXpkJefbk4sWb7GXNzCY-288" value="Hover scroll theo dữ liệu" style="whiteSpace=wrap;html=1;rounded=1;shadow=1;strokeWidth=1;fontSize=16;align=center;fillColor=#f5f5f5;strokeColor=#666666;" vertex="1" parent="1">
          <mxGeometry x="2240" y="1081" width="200" height="40" as="geometry" />
        </mxCell>
        <mxCell id="cXpkJefbk4sWb7GXNzCY-309" style="edgeStyle=orthogonalEdgeStyle;rounded=0;orthogonalLoop=1;jettySize=auto;html=1;exitX=0.75;exitY=1;exitDx=0;exitDy=0;entryX=0.5;entryY=0;entryDx=0;entryDy=0;" edge="1" parent="1" source="cXpkJefbk4sWb7GXNzCY-311" target="cXpkJefbk4sWb7GXNzCY-316">
          <mxGeometry relative="1" as="geometry" />
        </mxCell>
        <mxCell id="cXpkJefbk4sWb7GXNzCY-310" style="edgeStyle=orthogonalEdgeStyle;rounded=0;orthogonalLoop=1;jettySize=auto;html=1;exitX=0.25;exitY=1;exitDx=0;exitDy=0;entryX=0.5;entryY=0;entryDx=0;entryDy=0;" edge="1" parent="1" source="cXpkJefbk4sWb7GXNzCY-311" target="cXpkJefbk4sWb7GXNzCY-313">
          <mxGeometry relative="1" as="geometry" />
        </mxCell>
        <mxCell id="cXpkJefbk4sWb7GXNzCY-311" value="Đội hình" style="whiteSpace=wrap;html=1;rounded=1;shadow=1;strokeWidth=1;fontSize=16;align=center;fillColor=#f5f5f5;strokeColor=#666666;" vertex="1" parent="1">
          <mxGeometry x="1560" y="880" width="200" height="40" as="geometry" />
        </mxCell>
        <mxCell id="cXpkJefbk4sWb7GXNzCY-312" value="" style="edgeStyle=orthogonalEdgeStyle;rounded=0;orthogonalLoop=1;jettySize=auto;html=1;" edge="1" parent="1" source="cXpkJefbk4sWb7GXNzCY-313" target="cXpkJefbk4sWb7GXNzCY-314">
          <mxGeometry relative="1" as="geometry" />
        </mxCell>
        <mxCell id="cXpkJefbk4sWb7GXNzCY-313" value="Hover tiếp" style="whiteSpace=wrap;html=1;fontSize=16;fillColor=#f5f5f5;strokeColor=#666666;rounded=1;shadow=1;strokeWidth=1;arcSize=50;" vertex="1" parent="1">
          <mxGeometry x="1480" y="961" width="120" height="60" as="geometry" />
        </mxCell>
        <mxCell id="cXpkJefbk4sWb7GXNzCY-314" value="Điểm scroll ở giữa" style="whiteSpace=wrap;html=1;rounded=1;shadow=1;strokeWidth=1;fontSize=16;align=center;fillColor=#f5f5f5;strokeColor=#666666;" vertex="1" parent="1">
          <mxGeometry x="1440" y="1081" width="200" height="40" as="geometry" />
        </mxCell>
        <mxCell id="cXpkJefbk4sWb7GXNzCY-315" value="" style="edgeStyle=orthogonalEdgeStyle;rounded=0;orthogonalLoop=1;jettySize=auto;html=1;" edge="1" parent="1" source="cXpkJefbk4sWb7GXNzCY-316" target="cXpkJefbk4sWb7GXNzCY-317">
          <mxGeometry relative="1" as="geometry" />
        </mxCell>
        <mxCell id="cXpkJefbk4sWb7GXNzCY-316" value="Hết dữ liệu" style="whiteSpace=wrap;html=1;fontSize=16;fillColor=#f5f5f5;strokeColor=#666666;rounded=1;shadow=1;strokeWidth=1;arcSize=50;" vertex="1" parent="1">
          <mxGeometry x="1720" y="961" width="120" height="60" as="geometry" />
        </mxCell>
        <mxCell id="cXpkJefbk4sWb7GXNzCY-317" value="Hover scroll theo dữ liệu" style="whiteSpace=wrap;html=1;rounded=1;shadow=1;strokeWidth=1;fontSize=16;align=center;fillColor=#f5f5f5;strokeColor=#666666;" vertex="1" parent="1">
          <mxGeometry x="1680" y="1081" width="200" height="40" as="geometry" />
        </mxCell>
        <mxCell id="cXpkJefbk4sWb7GXNzCY-318" style="edgeStyle=orthogonalEdgeStyle;rounded=0;orthogonalLoop=1;jettySize=auto;html=1;exitX=0.75;exitY=1;exitDx=0;exitDy=0;entryX=0.5;entryY=0;entryDx=0;entryDy=0;" edge="1" parent="1" source="cXpkJefbk4sWb7GXNzCY-320" target="cXpkJefbk4sWb7GXNzCY-325">
          <mxGeometry relative="1" as="geometry" />
        </mxCell>
        <mxCell id="cXpkJefbk4sWb7GXNzCY-319" style="edgeStyle=orthogonalEdgeStyle;rounded=0;orthogonalLoop=1;jettySize=auto;html=1;exitX=0.5;exitY=1;exitDx=0;exitDy=0;entryX=0.75;entryY=0;entryDx=0;entryDy=0;" edge="1" parent="1" source="cXpkJefbk4sWb7GXNzCY-320" target="cXpkJefbk4sWb7GXNzCY-322">
          <mxGeometry relative="1" as="geometry" />
        </mxCell>
        <mxCell id="cXpkJefbk4sWb7GXNzCY-338" style="edgeStyle=orthogonalEdgeStyle;rounded=0;orthogonalLoop=1;jettySize=auto;html=1;exitX=0;exitY=0.5;exitDx=0;exitDy=0;entryX=0.5;entryY=0;entryDx=0;entryDy=0;" edge="1" parent="1" source="cXpkJefbk4sWb7GXNzCY-320" target="cXpkJefbk4sWb7GXNzCY-328">
          <mxGeometry relative="1" as="geometry" />
        </mxCell>
        <mxCell id="cXpkJefbk4sWb7GXNzCY-320" value="Livescore" style="whiteSpace=wrap;html=1;rounded=1;shadow=1;strokeWidth=1;fontSize=16;align=center;fillColor=#f5f5f5;strokeColor=#666666;" vertex="1" parent="1">
          <mxGeometry x="1040" y="880" width="200" height="40" as="geometry" />
        </mxCell>
        <mxCell id="cXpkJefbk4sWb7GXNzCY-321" value="" style="edgeStyle=orthogonalEdgeStyle;rounded=0;orthogonalLoop=1;jettySize=auto;html=1;" edge="1" parent="1" source="cXpkJefbk4sWb7GXNzCY-322" target="cXpkJefbk4sWb7GXNzCY-323">
          <mxGeometry relative="1" as="geometry" />
        </mxCell>
        <mxCell id="cXpkJefbk4sWb7GXNzCY-322" value="Hover tiếp" style="whiteSpace=wrap;html=1;fontSize=16;fillColor=#f5f5f5;strokeColor=#666666;rounded=1;shadow=1;strokeWidth=1;arcSize=50;" vertex="1" parent="1">
          <mxGeometry x="960" y="961" width="120" height="60" as="geometry" />
        </mxCell>
        <mxCell id="cXpkJefbk4sWb7GXNzCY-323" value="Điểm scroll ở giữa" style="whiteSpace=wrap;html=1;rounded=1;shadow=1;strokeWidth=1;fontSize=16;align=center;fillColor=#f5f5f5;strokeColor=#666666;" vertex="1" parent="1">
          <mxGeometry x="920" y="1081" width="200" height="40" as="geometry" />
        </mxCell>
        <mxCell id="cXpkJefbk4sWb7GXNzCY-324" value="" style="edgeStyle=orthogonalEdgeStyle;rounded=0;orthogonalLoop=1;jettySize=auto;html=1;" edge="1" parent="1" source="cXpkJefbk4sWb7GXNzCY-325" target="cXpkJefbk4sWb7GXNzCY-326">
          <mxGeometry relative="1" as="geometry" />
        </mxCell>
        <mxCell id="cXpkJefbk4sWb7GXNzCY-325" value="Hết dữ liệu" style="whiteSpace=wrap;html=1;fontSize=16;fillColor=#f5f5f5;strokeColor=#666666;rounded=1;shadow=1;strokeWidth=1;arcSize=50;" vertex="1" parent="1">
          <mxGeometry x="1200" y="961" width="120" height="60" as="geometry" />
        </mxCell>
        <mxCell id="cXpkJefbk4sWb7GXNzCY-326" value="Hover scroll theo dữ liệu" style="whiteSpace=wrap;html=1;rounded=1;shadow=1;strokeWidth=1;fontSize=16;align=center;fillColor=#f5f5f5;strokeColor=#666666;" vertex="1" parent="1">
          <mxGeometry x="1160" y="1081" width="200" height="40" as="geometry" />
        </mxCell>
        <mxCell id="cXpkJefbk4sWb7GXNzCY-335" value="" style="edgeStyle=orthogonalEdgeStyle;rounded=0;orthogonalLoop=1;jettySize=auto;html=1;" edge="1" parent="1" source="cXpkJefbk4sWb7GXNzCY-327" target="cXpkJefbk4sWb7GXNzCY-330">
          <mxGeometry relative="1" as="geometry" />
        </mxCell>
        <mxCell id="cXpkJefbk4sWb7GXNzCY-327" value="Không có nút Play" style="whiteSpace=wrap;html=1;fontSize=16;fillColor=#f5f5f5;strokeColor=#666666;rounded=1;shadow=1;strokeWidth=1;arcSize=50;" vertex="1" parent="1">
          <mxGeometry x="760" y="1071" width="120" height="60" as="geometry" />
        </mxCell>
        <mxCell id="cXpkJefbk4sWb7GXNzCY-332" style="edgeStyle=orthogonalEdgeStyle;rounded=0;orthogonalLoop=1;jettySize=auto;html=1;exitX=0.75;exitY=1;exitDx=0;exitDy=0;" edge="1" parent="1" source="cXpkJefbk4sWb7GXNzCY-328" target="cXpkJefbk4sWb7GXNzCY-327">
          <mxGeometry relative="1" as="geometry" />
        </mxCell>
        <mxCell id="cXpkJefbk4sWb7GXNzCY-333" style="edgeStyle=orthogonalEdgeStyle;rounded=0;orthogonalLoop=1;jettySize=auto;html=1;exitX=0.25;exitY=1;exitDx=0;exitDy=0;entryX=0.5;entryY=0;entryDx=0;entryDy=0;" edge="1" parent="1" source="cXpkJefbk4sWb7GXNzCY-328" target="cXpkJefbk4sWb7GXNzCY-329">
          <mxGeometry relative="1" as="geometry" />
        </mxCell>
        <mxCell id="cXpkJefbk4sWb7GXNzCY-328" value="Bấm vào sự kiện" style="whiteSpace=wrap;html=1;rounded=1;shadow=1;strokeWidth=1;fontSize=16;align=center;fillColor=#f5f5f5;strokeColor=#666666;" vertex="1" parent="1">
          <mxGeometry x="600" y="961" width="200" height="40" as="geometry" />
        </mxCell>
        <mxCell id="cXpkJefbk4sWb7GXNzCY-334" style="edgeStyle=orthogonalEdgeStyle;rounded=0;orthogonalLoop=1;jettySize=auto;html=1;exitX=0.5;exitY=1;exitDx=0;exitDy=0;entryX=0.5;entryY=0;entryDx=0;entryDy=0;" edge="1" parent="1" source="cXpkJefbk4sWb7GXNzCY-329" target="cXpkJefbk4sWb7GXNzCY-331">
          <mxGeometry relative="1" as="geometry" />
        </mxCell>
        <mxCell id="cXpkJefbk4sWb7GXNzCY-329" value="Có nút Play" style="whiteSpace=wrap;html=1;fontSize=16;fillColor=#f5f5f5;strokeColor=#666666;rounded=1;shadow=1;strokeWidth=1;arcSize=50;" vertex="1" parent="1">
          <mxGeometry x="520" y="1071" width="120" height="60" as="geometry" />
        </mxCell>
        <mxCell id="cXpkJefbk4sWb7GXNzCY-330" value="Không có gì xảy ra" style="whiteSpace=wrap;html=1;rounded=1;shadow=1;strokeWidth=1;fontSize=16;align=center;fillColor=#f5f5f5;strokeColor=#666666;" vertex="1" parent="1">
          <mxGeometry x="720" y="1200" width="200" height="40" as="geometry" />
        </mxCell>
        <mxCell id="cXpkJefbk4sWb7GXNzCY-331" value="Mở Player trận đấu đó" style="whiteSpace=wrap;html=1;rounded=1;shadow=1;strokeWidth=1;fontSize=16;align=center;fillColor=#f5f5f5;strokeColor=#666666;" vertex="1" parent="1">
          <mxGeometry x="480" y="1200" width="200" height="40" as="geometry" />
        </mxCell>
        <mxCell id="cXpkJefbk4sWb7GXNzCY-341" style="edgeStyle=orthogonalEdgeStyle;rounded=0;orthogonalLoop=1;jettySize=auto;html=1;exitX=0.5;exitY=1;exitDx=0;exitDy=0;" edge="1" parent="1" source="cXpkJefbk4sWb7GXNzCY-58" target="cXpkJefbk4sWb7GXNzCY-58">
          <mxGeometry relative="1" as="geometry" />
        </mxCell>
        <mxCell id="cXpkJefbk4sWb7GXNzCY-342" value="" style="endArrow=none;dashed=1;html=1;rounded=0;exitX=0;exitY=0.5;exitDx=0;exitDy=0;entryX=0.5;entryY=1;entryDx=0;entryDy=0;" edge="1" parent="1" source="cXpkJefbk4sWb7GXNzCY-56" target="cXpkJefbk4sWb7GXNzCY-320">
          <mxGeometry width="50" height="50" relative="1" as="geometry">
            <mxPoint x="1450" y="1280" as="sourcePoint" />
            <mxPoint x="1500" y="1230" as="targetPoint" />
            <Array as="points">
              <mxPoint x="1140" y="1390" />
            </Array>
          </mxGeometry>
        </mxCell>
        <mxCell id="cXpkJefbk4sWb7GXNzCY-343" value="" style="endArrow=none;dashed=1;html=1;rounded=0;exitX=0;exitY=0.5;exitDx=0;exitDy=0;entryX=0.5;entryY=1;entryDx=0;entryDy=0;" edge="1" parent="1" source="cXpkJefbk4sWb7GXNzCY-56" target="cXpkJefbk4sWb7GXNzCY-311">
          <mxGeometry width="50" height="50" relative="1" as="geometry">
            <mxPoint x="2520" y="1479" as="sourcePoint" />
            <mxPoint x="1660" y="1009" as="targetPoint" />
            <Array as="points">
              <mxPoint x="1660" y="1390" />
            </Array>
          </mxGeometry>
        </mxCell>
        <mxCell id="cXpkJefbk4sWb7GXNzCY-344" value="" style="endArrow=none;dashed=1;html=1;rounded=0;exitX=1;exitY=0.5;exitDx=0;exitDy=0;entryX=0.5;entryY=1;entryDx=0;entryDy=0;" edge="1" parent="1" source="cXpkJefbk4sWb7GXNzCY-56" target="cXpkJefbk4sWb7GXNzCY-46">
          <mxGeometry width="50" height="50" relative="1" as="geometry">
            <mxPoint x="3100" y="1551" as="sourcePoint" />
            <mxPoint x="2240" y="1081" as="targetPoint" />
            <Array as="points">
              <mxPoint x="2220" y="1390" />
            </Array>
          </mxGeometry>
        </mxCell>
        <mxCell id="cXpkJefbk4sWb7GXNzCY-345" value="" style="endArrow=none;dashed=1;html=1;rounded=0;exitX=1;exitY=0.5;exitDx=0;exitDy=0;entryX=0.5;entryY=1;entryDx=0;entryDy=0;" edge="1" parent="1" source="cXpkJefbk4sWb7GXNzCY-56" target="cXpkJefbk4sWb7GXNzCY-70">
          <mxGeometry width="50" height="50" relative="1" as="geometry">
            <mxPoint x="3380" y="1570" as="sourcePoint" />
            <mxPoint x="2520" y="1100" as="targetPoint" />
            <Array as="points">
              <mxPoint x="2980" y="1390" />
            </Array>
          </mxGeometry>
        </mxCell>
        <mxCell id="cXpkJefbk4sWb7GXNzCY-346" value="Đội hình" style="whiteSpace=wrap;html=1;rounded=1;shadow=1;strokeWidth=1;fontSize=16;align=center;fillColor=#f5f5f5;strokeColor=#666666;" vertex="1" parent="1">
          <mxGeometry x="1000" y="-600" width="200" height="40" as="geometry" />
        </mxCell>
        <mxCell id="cXpkJefbk4sWb7GXNzCY-361" style="edgeStyle=orthogonalEdgeStyle;rounded=0;orthogonalLoop=1;jettySize=auto;html=1;exitX=0.5;exitY=1;exitDx=0;exitDy=0;entryX=0.5;entryY=0;entryDx=0;entryDy=0;" edge="1" parent="1" source="cXpkJefbk4sWb7GXNzCY-349" target="cXpkJefbk4sWb7GXNzCY-273">
          <mxGeometry relative="1" as="geometry" />
        </mxCell>
        <mxCell id="cXpkJefbk4sWb7GXNzCY-349" value="Chọn &quot;Dữ liệu&quot;" style="whiteSpace=wrap;html=1;fontSize=16;fillColor=#f5f5f5;strokeColor=#666666;rounded=1;shadow=1;strokeWidth=1;arcSize=50;" vertex="1" parent="1">
          <mxGeometry x="2160" y="230" width="120" height="60" as="geometry" />
        </mxCell>
        <mxCell id="cXpkJefbk4sWb7GXNzCY-352" value="" style="edgeStyle=orthogonalEdgeStyle;rounded=0;orthogonalLoop=1;jettySize=auto;html=1;" edge="1" parent="1" source="cXpkJefbk4sWb7GXNzCY-351" target="cXpkJefbk4sWb7GXNzCY-38">
          <mxGeometry relative="1" as="geometry" />
        </mxCell>
        <mxCell id="cXpkJefbk4sWb7GXNzCY-351" value="Không chọn &quot;Dữ liệu&quot; 15p" style="whiteSpace=wrap;html=1;fontSize=16;fillColor=#f5f5f5;strokeColor=#666666;rounded=1;shadow=1;strokeWidth=1;arcSize=50;" vertex="1" parent="1">
          <mxGeometry x="1920" y="320" width="120" height="60" as="geometry" />
        </mxCell>
        <mxCell id="cXpkJefbk4sWb7GXNzCY-358" value="" style="edgeStyle=orthogonalEdgeStyle;rounded=0;orthogonalLoop=1;jettySize=auto;html=1;" edge="1" parent="1" source="cXpkJefbk4sWb7GXNzCY-355" target="cXpkJefbk4sWb7GXNzCY-273">
          <mxGeometry relative="1" as="geometry" />
        </mxCell>
        <mxCell id="cXpkJefbk4sWb7GXNzCY-355" value="&lt;font style=&quot;font-size: 18px;&quot;&gt;Bar không hiển thị lại trong 7 ngày&lt;/font&gt;" style="ellipse;whiteSpace=wrap;html=1;" vertex="1" parent="1">
          <mxGeometry x="1902.5" y="615" width="155" height="90" as="geometry" />
        </mxCell>
      </root>
    </mxGraphModel>
  </diagram>
</mxfile>
